<?xml version="1.0" encoding="UTF-8" standalone="no"?>
<!-- Generated by Microsoft Visio 11.0, SVG Export, v1.0 Domestic_Cat_Sejant.svg Page-1 -->

<svg
   xmlns:v="http://schemas.microsoft.com/visio/2003/SVGExtensions/"
   xmlns:dc="http://purl.org/dc/elements/1.1/"
   xmlns:cc="http://creativecommons.org/ns#"
   xmlns:rdf="http://www.w3.org/1999/02/22-rdf-syntax-ns#"
   xmlns:svg="http://www.w3.org/2000/svg"
   xmlns="http://www.w3.org/2000/svg"
   xmlns:sodipodi="http://sodipodi.sourceforge.net/DTD/sodipodi-0.dtd"
   xmlns:inkscape="http://www.inkscape.org/namespaces/inkscape"
   width="2.07822in"
   height="3.92487in"
   viewBox="0 0 149.632 282.591"
   xml:space="preserve"
   color-interpolation-filters="sRGB"
   class="st3"
   id="svg2"
   version="1.1"
   inkscape:version="0.48.2 r9819"
   sodipodi:docname="Domestic_Cat_Sejant.svg"><title
   id="title3035">Domestic Cat Sejant</title><metadata
   id="metadata58"><rdf:RDF><cc:Work
       rdf:about=""><dc:format>image/svg+xml</dc:format><dc:type
         rdf:resource="http://purl.org/dc/dcmitype/StillImage" /><dc:title>Domestic Cat Sejant</dc:title><dc:date>06/01/2013</dc:date><dc:creator><cc:Agent><dc:title>Christie L. Ward</dc:title></cc:Agent></dc:creator><dc:rights><cc:Agent><dc:title>Creative Commons Attribution-ShareAlike 3.0 Unported (CC BY-SA 3.0) license (http://creativecommons.org/licenses/by-sa/3.0/). No attribution required for heraldic or artistic use by members of the Society for Creative Anachronism, Inc.</dc:title></cc:Agent></dc:rights><dc:source>Microsoft Visio 2010</dc:source><cc:license
         rdf:resource="http://creativecommons.org/licenses/by-sa/3.0/" /></cc:Work><cc:License
       rdf:about="http://creativecommons.org/licenses/by-sa/3.0/"><cc:permits
         rdf:resource="http://creativecommons.org/ns#Reproduction" /><cc:permits
         rdf:resource="http://creativecommons.org/ns#Distribution" /><cc:requires
         rdf:resource="http://creativecommons.org/ns#Notice" /><cc:requires
         rdf:resource="http://creativecommons.org/ns#Attribution" /><cc:permits
         rdf:resource="http://creativecommons.org/ns#DerivativeWorks" /><cc:requires
         rdf:resource="http://creativecommons.org/ns#ShareAlike" /></cc:License></rdf:RDF></metadata><defs
   id="defs56" /><sodipodi:namedview
   pagecolor="#ffffff"
   bordercolor="#666666"
   borderopacity="1"
   objecttolerance="10"
   gridtolerance="10"
   guidetolerance="10"
   inkscape:pageopacity="0"
   inkscape:pageshadow="2"
   inkscape:window-width="740"
   inkscape:window-height="480"
   id="namedview54"
   showgrid="false"
   inkscape:zoom="0.6681042"
   inkscape:cx="93.519897"
   inkscape:cy="176.61916"
   inkscape:window-x="0"
   inkscape:window-y="0"
   inkscape:window-maximized="0"
   inkscape:current-layer="svg2" />
	
	<v:documentProperties
   v:langID="1033"
   v:viewMarkup="false" />

	<style
   type="text/css"
   id="style6">
	
		.st1 {fill:#ffff00;stroke:#000000;stroke-linecap:round;stroke-linejoin:round;stroke-width:2.16}
		.st2 {stroke:#000000;stroke-linecap:round;stroke-linejoin:round;stroke-width:1.2}
		.st3 {fill:none;fill-rule:evenodd;font-size:12px;overflow:visible;stroke-linecap:square;stroke-miterlimit:3}
	
	</style>

	<g
   v:mID="0"
   v:index="1"
   v:groupContext="foregroundPage"
   id="g8">
		<title
   id="title10">Page-1</title>
		<v:pageProperties
   v:drawingScale="1"
   v:pageScale="1"
   v:drawingUnits="19"
   v:shadowOffsetX="9"
   v:shadowOffsetY="-9" />
		<g
   id="group2-1"
   transform="translate(2.16,-2.16)"
   v:mID="2"
   v:groupContext="group">
			<title
   id="title13">Cat Sejant</title>
			<g
   id="group3-2"
   v:mID="3"
   v:groupContext="group">
				<title
   id="title16">Sheet.3</title>
				<g
   id="shape4-3"
   v:mID="4"
   v:groupContext="shape"
   transform="translate(35.5949,-54.2321)">
					<title
   id="title19">Sheet.4</title>
					<path
   d="M79.63 223.52 A32.5209 32.5209 -180 0 0 21 220.73 A35.8003 35.8003 -180 0 0 34.96 266.79 A272.816 272.816          0 0 1 14.72 267.49 A8.41372 8.41372 -180 1 0 7.74 281.45 A22.3225 22.3225 -180 0 0 25.88 279.36          A21.1171 21.1171 -180 0 0 50.31 277.96 L71.95 282.15 A5.62067 5.62067 -180 0 0 76.14 272.38 A41.0557          41.0557 -180 0 0 79.63 223.52 Z"
   class="st1"
   id="path21" />
				</g>
				<g
   id="shape5-5"
   v:mID="5"
   v:groupContext="shape">
					<title
   id="title24">Sheet.5</title>
					<path
   d="M51.65 280.7 A14.6081 14.6081 0 0 1 71.19 261.16 A50.3995 50.3995 -89.28 0 0 144.6 223.47 A83.2219 83.2219          -87.45 0 0 135.4 173.22 A247.828 247.828 -180 0 0 63.51 69.93 A22.0851 22.0851 0 0 1 58.63 53.87          A54.0533 54.0533 -89.53 0 0 35.59 16.88 A32.3427 32.3427 91 0 1 37.69 26.65 A27.5531 27.5531 -180          0 0 25.13 4.32 A1.9508 1.9508 -180 0 0 23.73 7.11 L25.13 23.86 L24.43 19.67 A102.668 102.668 0 0          1 11.17 6.41 A1.76652 1.76652 -180 0 0 10.47 8.51 A188.849 188.849 -90.16 0 0 13.96 25.43 A39.7563          39.7563 83.86 0 1 23.73 20.37 A35.3897 35.3897 -180 0 0 2.79 39.22 A8.43683 8.43683 0 0 1 2.79 50.38          L0 55.97 A12.2099 12.2099 -180 0 0 6.98 64.34 A8.13239 8.13239 0 0 1 7.68 53.87 A8.96133 8.96133          -180 0 0 7.68 65.74 A18.1989 18.1989 -180 0 0 19.54 57.36 L24.43 57.36 L19.54 57.36 A18.9884 18.9884          0 0 1 7.68 65.74 A19.4201 19.4201 -180 0 0 27.22 62.95 A1.82245 1.82245 0 1 1 29.31 65.74 A45.2099          45.2099 -180 0 0 10.47 121.57 L13.96 204.63 A9.7467 9.7467 -180 0 0 4.19 215.8 A10.8131 10.8131          -180 0 0 14.31 216.49 A22.1652 22.1652 -88.76 0 0 25.13 196.95 L22.33 132.74 A14.162 14.162 -180          0 0 16.75 124.37 A19.7614 19.7614 93.45 0 1 22.33 133.09 L25.13 196.95 A22.182 22.182 0 0 1 13.96          216.49 A7.07629 7.07629 -180 0 0 22.33 226.96 A10.7705 10.7705 -180 0 0 36.29 217.89 L36.29 202.53          L47.46 149.49 A51.1734 51.1734 -180 0 0 57.23 129.95 A70.2881 70.2881 0 0 1 47.46 149.49 A40.772          40.772 -90.45 0 0 73.63 161.36 A24.8596 24.8596 90.69 0 1 105.39 156.47 A25.1612 25.1612 -180 0          0 69.1 169.03 A35.8003 35.8003 -180 0 0 83.05 215.1 A272.816 272.816 0 0 1 62.81 215.8 A8.41372          8.41372 -180 1 0 55.84 229.75 A22.3225 22.3225 -180 0 0 73.98 227.66 A21.1171 21.1171 -180 0 0 98.41          226.26 L120.05 230.45 A5.465 5.465 -180 0 0 124.23 220.68 A41.0557 41.0557 -180 0 0 127.72 171.83          A41.2519 41.2519 0 0 1 124.23 220.68 A9.25428 9.25428 0 0 1 127.02 227.66 A33.2739 33.2739 0 0 1          77.47 249.99 A27.2302 27.2302 -180 0 0 34.9 269.54 A10.8583 10.8583 -90.06 0 0 51.65 280.7 Z"
   class="st1"
   id="path26" />
				</g>
				<g
   id="group6-7"
   transform="translate(10.4691,-234.998)"
   v:mID="6"
   v:groupContext="group">
					<title
   id="title29">Sheet.6</title>
					<g
   id="shape7-8"
   v:mID="7"
   v:groupContext="shape">
						<title
   id="title32">Sheet.7</title>
						<path
   d="M16.84 272.21 A9.89227 9.89227 -177.36 0 0 0.09 280.59 A6.66834 6.66834 -180 0 0 11.26 277.79 A10.992           10.992 -180 0 0 0.09 280.59 A9.94323 9.94323 0 0 1 16.84 272.21 Z"
   class="st1"
   id="path34" />
					</g>
					<g
   id="shape8-10"
   v:mID="8"
   v:groupContext="shape"
   transform="translate(4.73692,-0.290808)">
						<title
   id="title37">Sheet.8</title>
						<path
   d="M0.5 277.88 A3.8925 3.8925 -180 0 0 1.2 282.59 A4.315 4.315 -180 0 0 0.5 277.88 Z"
   class="st1"
   id="path39" />
					</g>
				</g>
			</g>
			<g
   id="group9-12"
   transform="translate(15.8172,-215.288)"
   v:mID="9"
   v:groupContext="group">
				<title
   id="title42">Sheet.9</title>
				<g
   id="shape10-13"
   v:mID="10"
   v:groupContext="shape"
   transform="translate(19.2601,-1.35643) rotate(4)">
					<title
   id="title45">Sheet.10</title>
					<path
   d="M34.9 275.96 A22.3958 22.3958 -180 0 0 0 272.82 A21.9829 21.9829 0 0 1 29.31 282.59"
   class="st2"
   id="path47" />
				</g>
				<g
   id="shape11-16"
   v:mID="11"
   v:groupContext="shape"
   transform="translate(-37.9691,0.798835) rotate(-8)">
					<title
   id="title50">Sheet.11</title>
					<path
   d="M34.9 275.96 A22.3958 22.3958 -180 0 0 0 272.82 A21.9829 21.9829 0 0 1 29.31 282.59"
   class="st2"
   id="path52" />
				</g>
			</g>
		</g>
	</g>
</svg>