<?xml version="1.0" encoding="UTF-8" standalone="no"?>
<!DOCTYPE svg PUBLIC "-//W3C//DTD SVG 1.0//EN" "http://www.w3.org/TR/2001/REC-SVG-20010904/DTD/svg10.dtd">
<!-- Generated by Microsoft Visio 11.0, SVG Export, v1.0 Panther_Rampant.svg Page-1 -->
<svg xmlns="http://www.w3.org/2000/svg" xmlns:xlink="http://www.w3.org/1999/xlink" xmlns:ev="http://www.w3.org/2001/xml-events"
		xmlns:v="http://schemas.microsoft.com/visio/2003/SVGExtensions/" width="6.346in" height="8.34928in"
		viewBox="0 0 456.912 601.148" xml:space="preserve" color-interpolation-filters="sRGB" class="st15">
	<title>Panther Rampant</title>
	<v:documentProperties v:langID="1033" v:viewMarkup="false"/>

	<style type="text/css">
	<![CDATA[
		.st1 {fill:#ffffff;stroke:#000000;stroke-linecap:round;stroke-linejoin:round;stroke-width:2.25}
		.st2 {fill:#ffff00;stroke:#000000;stroke-linecap:round;stroke-linejoin:round;stroke-width:1.2}
		.st3 {fill:#ff0000;stroke:#000000;stroke-linecap:round;stroke-linejoin:round;stroke-width:1.2}
		.st4 {fill:#ff0000;stroke:#000000;stroke-linecap:round;stroke-linejoin:round;stroke-width:1}
		.st5 {fill:#ff0000;stroke:#000000;stroke-linecap:round;stroke-linejoin:round;stroke-width:2.16}
		.st6 {fill:#ffffff;stroke:#000000;stroke-linecap:round;stroke-linejoin:round;stroke-width:1.5}
		.st7 {fill:#000000;stroke:#000000;stroke-linecap:round;stroke-linejoin:round;stroke-width:2.25}
		.st8 {fill:#000000;stroke:#000000;stroke-linecap:round;stroke-linejoin:round;stroke-width:1.2}
		.st9 {stroke:#000000;stroke-linecap:round;stroke-linejoin:round;stroke-width:2.25}
		.st10 {fill:#000000;stroke:#000000;stroke-linecap:round;stroke-linejoin:round;stroke-width:0.25}
		.st11 {fill:#ff0000;stroke:#000000;stroke-linecap:round;stroke-linejoin:round;stroke-width:1.5}
		.st12 {fill:#ffff00;stroke:#000000;stroke-linecap:round;stroke-linejoin:round;stroke-width:1.5}
		.st13 {fill:#0000ff;stroke:#000000;stroke-linecap:round;stroke-linejoin:round;stroke-width:1.5}
		.st14 {fill:#008000;stroke:#000000;stroke-linecap:round;stroke-linejoin:round;stroke-width:1.5}
		.st15 {fill:none;fill-rule:evenodd;font-size:12px;overflow:visible;stroke-linecap:square;stroke-miterlimit:3}
	]]>
	</style>

	<g v:mID="0" v:index="1" v:groupContext="foregroundPage">
		<title>Page-1</title>
		<v:pageProperties v:drawingScale="1" v:pageScale="1" v:drawingUnits="19" v:shadowOffsetX="9" v:shadowOffsetY="-9"/>
		<g id="group1-1" transform="translate(8.67011,-4.96419)" v:mID="1" v:groupContext="group">
			<title>Panther Rampant</title>
			<g id="group2-2" transform="translate(153.153,-507.987)" v:mID="2" v:groupContext="group">
				<title>Sheet.2</title>
				<g id="shape3-3" v:mID="3" v:groupContext="shape">
					<title>Sheet.3</title>
					<path d="M64.46 596 A5.87263 4.90627 -100 0 0 65.78 594.98 A6.594 3.45691 -127 0 0 67.85 588.81 A34.112 17.8833
								 -127 0 0 50.94 564.39 A11.1324 5.83615 53 0 1 44.46 547.83 A8.50343 4.45793 -127 0 0 33.41 536.15
								 A5.55365 2.91151 53 0 1 38.63 545.07 A17.1532 8.99256 -127 0 0 39.13 558.92 A24.0572 11.4864 45
								 0 1 33.43 547.36 A15.6553 7.47481 -135 0 0 19.24 531.7 A13.6576 6.52101 45 0 1 10 520.28 A16.5026
								 7.87938 -135 0 0 20.27 536.03 A23.5213 11.2306 45 0 1 25.25 549.41 A24.4005 11.6503 -135 0 0 38.61
								 569.17 A22.8502 13.1349 30 0 1 28.53 558.43 A15.207 8.74141 -150 0 0 11.38 547.13 A13.2666 7.62599
								 30 0 1 0 538.46 A16.0301 9.21452 -150 0 0 13.21 551.32 A13.7216 7.88755 30 0 1 20.78 563.22 A9.66781
								 9.16077 -20 0 0 17.06 562.25 A6.19948 5.56476 14.65 0 1 10.16 559.3 A7.29267 6.61444 -167.74 0 0
								 0.98 551.99 A6.27853 4.98327 29.51 0 1 5.17 558.97 A9.11994 8.1464 -164.36 0 0 10.96 569.09 A9.61213
								 8.69808 127.17 0 1 20.13 578.04 A22.4124 18.7263 -64.79 0 0 20.36 578.73 A12.7953 10.6898 -100 0
								 0 14.41 582.37 A11.1626 9.32575 80 0 1 4.12 581.49 A13.4878 11.2684 -100 0 0 17.65 585.84 A11.5454
								 9.64561 80 0 1 28.15 594.32 A17.2663 14.4251 -100 0 0 49.89 596.32 A21.0733 17.6056 80 0 1 64.46
								 596 Z" class="st1"/>
				</g>
				<g id="group4-5" transform="translate(-307.912,125.594) rotate(-40) scale(-1,1)" v:mID="4" v:groupContext="group">
					<title>Sheet.4</title>
					<g id="shape5-6" v:mID="5" v:groupContext="shape" transform="translate(205.63,30.3204) rotate(20)">
						<title>Sheet.5</title>
						<path d="M16.92 595.88 A4.01203 6.97954 0 0 1 9.67 597.98 A18.3908 31.9937 0 0 1 7.27 569.93 A13.1349 22.8502
									 -180 0 0 3.02 549.62 A8.74141 15.207 0 0 1 1.81 529.12 A13.2666 7.62599 -90 0 0 -0 514.93 A16.0301
									 9.21452 90 0 1 4.53 532.8 A7.88755 13.7216 -180 0 0 11.48 545.42 A11.7959 20.5208 0 0 1 15.41
									 575.38 A14.3967 25.0453 -180 0 0 16.92 595.88 Z" class="st2"/>
					</g>
					<g id="shape6-8" v:mID="6" v:groupContext="shape" transform="translate(54.4192,0.796183) rotate(5)">
						<title>Sheet.6</title>
						<path d="M14.47 591.16 A7.75161 3.70111 90 0 1 9.3 600.36 A19.6691 41.1949 0 0 1 7.23 564.11 A11.4864 24.0572
									 -180 0 0 2.58 543.55 A7.47481 15.6553 0 0 1 1.55 522.44 A13.6576 6.52101 -90 0 0 0 507.83 A16.5026
									 7.87938 90 0 1 3.88 526.23 A11.2306 23.5213 -180 0 0 9.82 539.22 A11.6503 24.4005 0 0 1 13.18
									 570.06 A12.3107 25.7836 -180 0 0 14.47 591.16 Z" class="st3"/>
					</g>
					<g id="shape7-10" v:mID="7" v:groupContext="shape"
							transform="translate(576.992,380.953) rotate(70) scale(-1,1)">
						<title>Sheet.7</title>
						<path d="M4.94 599.88 A25.0231 22.6461 57.2 0 1 4.89 570.11 A22.4124 18.7263 45.21 0 1 17.96 565.42 A9.61213
									 8.69808 -122.83 0 0 29.51 559.86 A9.11994 8.1464 125.64 0 1 41 557.88 A6.27853 4.98327 -40.49
									 0 0 48.99 556.33 A7.29267 6.61444 122.26 0 1 38.98 562.45 A6.19948 5.56476 -55.35 0 0 33.85
									 567.93 A9.16077 9.66781 0 0 1 23.52 573.38 A26.869 22.7992 -133.12 0 0 11.98 592.65 A6.48156
									 5.13439 40.32 0 1 4.94 599.88 Z" class="st3"/>
					</g>
					<g id="shape8-12" v:mID="8" v:groupContext="shape" transform="translate(-29.6306,1.41344) rotate(-3)">
						<title>Sheet.8</title>
						<path d="M8.34 596.22 A3.45691 6.594 -180 1 0 14.63 591.08 A17.2542 32.9121 0 0 1 13.73 563.11 A17.1532 8.99256
									 -90 0 0 5.35 543.71 A5.55365 2.91151 90 0 1 4.15 533.43 A4.45793 8.50343 -180 0 0 2.36 549.42
									 A5.83615 11.1324 0 0 1 7.14 566.54 A17.8833 34.112 -180 0 0 8.34 596.22 Z" class="st2"/>
					</g>
					<g id="shape9-14" v:mID="9" v:groupContext="shape" transform="translate(522.132,279.537) rotate(60)">
						<title>Sheet.9</title>
						<path d="M24.77 597.44 A5.87263 4.90627 0 0 1 14.15 598.92 A26.9197 22.49 0 0 1 10.64 579.2 A19.2263 16.0625
									 -180 0 0 4.42 564.93 A12.7953 10.6898 0 0 1 2.65 550.52 A11.1626 9.32575 -180 0 0 -0 540.54
									 A13.4878 11.2684 0 0 1 6.63 553.11 A11.5454 9.64561 -180 0 0 16.81 561.97 A17.2663 14.4251 0
									 0 1 22.55 583.03 A21.0733 17.6056 -180 0 0 24.77 597.44 Z" class="st2"/>
					</g>
				</g>
			</g>
			<g id="group10-16" transform="translate(37.1908,-442.154)" v:mID="10" v:groupContext="group">
				<title>Sheet.10</title>
				<g id="shape11-17" v:mID="11" v:groupContext="shape">
					<title>Sheet.11</title>
					<path d="M65.71 552.03 A26.8828 16.2137 -119 0 0 44.29 529.91 A17.9757 10.8416 61 0 1 27.92 520.08 A20.9998 12.6656
								 -119 0 0 11.12 502.63 A17.3796 10.4821 61 0 1 22.32 517.68 A19.9216 12.0152 -119 0 0 36.79 540.36
								 A29.9343 18.0542 61 0 1 53.23 557.62 A22.7687 19.761 36.71 0 1 36.14 545.88 A16.1822 14.1884 -161.73
								 0 0 23.13 536.92 A14.5833 12.9021 26 0 1 14.23 530.93 A13.2225 11.6982 -154 0 0 -0 525.64 A18.3364
								 16.1847 21.92 0 1 13.27 539.43 A5.65673 4.97866 -148.01 0 0 21.5 544.06 A8.52099 7.14799 10.92 0
								 1 8.21 542.92 A10.0721 8.79108 -163.26 0 0 23.82 548.27 A11.348 9.96576 33.07 0 1 33.83 555.29 A43.2114
								 38.1847 -156.92 0 0 47.05 569.07 A15.2019 12.1938 -84 0 0 44.06 571.69 A11.387 9.13377 96 0 1 35.78
								 566.41 L29.52 558.7 A9.03195 7.24473 -84 0 0 19.54 559.42 A2.38622 1.91404 96 0 1 16.39 559.09 A6.33445
								 5.081 -84 0 0 23.11 562.44 A7.74332 6.21108 96 0 1 28.25 567.38 L31.55 573.02 A5.56785 4.46609 -84
								 0 0 24.84 576.28 A9.82754 7.88288 96 0 1 18.48 579.58 A6.90243 5.53659 -84 0 0 26.76 578.25 A5.48664
								 4.40096 96 0 1 33.1 578.47 A20.2757 16.2636 -84 0 0 50.31 582.93 A16.538 13.2655 96 0 1 64.54 588.83
								 A14.3279 11.4927 -84 0 0 80.58 594.28 A30.4115 24.3938 -68.08 0 0 85.45 591.83 A45.1037 42.1052
								 -85.37 0 0 92.82 595.66 A32.7144 30.5396 -85 0 0 117.64 590.12 A52.5974 49.1007 95 0 1 147.37 593.63
								 A10.1528 9.47784 -60.25 1 0 162.5 582.73 A61.5905 57.4959 -78.48 0 0 119.18 577.66 A33.6187 31.3837
								 102.95 0 1 96.68 580.48 A16.1932 15.1166 117.44 0 1 95.9 580.22 A11.8775 9.68702 -144 0 0 95.98
								 572.97 A31.5365 25.7205 -177.48 0 0 93.57 560.11 A16.3429 13.3289 36 0 1 100.95 544.1 A13.9296 11.3607
								 -144 0 0 110.57 530.87 A8.94635 7.29645 36 0 1 100.54 536.87 A17.9562 14.6447 -144 0 0 91.24 539.93
								 A5.61855 4.58236 -144 0 0 90 533.83 A6.47263 5.27894 36 0 1 90.22 524.75 A13.7186 11.1886 -144 0
								 0 94.58 512.9 A19.3327 15.7673 36 0 1 83.1 521.88 A14.8486 12.1102 -144 0 0 80.71 539.79 A19.0314
								 15.5216 36 0 1 84.33 556.43 A9.41471 8.78881 101.75 0 1 81 543.49 A13.5249 12.6257 -52.71 0 0 74.85
								 558.34 A16.4439 15.3507 91.75 0 1 74.89 542.23 A9.92342 9.26371 -113.57 0 0 68.91 528.73 A14.2996
								 13.349 78.15 0 1 63.85 513.26 A10.8813 10.1579 -159.97 0 0 61.81 527.58 A10.9446 10.2169 79.92 0
								 1 54.07 516.35 A17.0327 15.9004 -52.87 0 0 53.37 528.73 A9.61933 8.97983 -103.11 0 0 64.2 534.63
								 A4.88356 4.5589 168.96 0 1 67.43 540.54 A22.784 21.2693 -136.4 0 0 65.82 550.1 A45.1037 42.1052
								 -85.37 0 0 65.71 552.03 Z" class="st1"/>
				</g>
				<g id="group12-19" v:mID="12" v:groupContext="group">
					<title>Sheet.12</title>
					<g id="shape13-20" v:mID="13" v:groupContext="shape" transform="translate(-396.932,236.079) rotate(-54)">
						<title>Sheet.13</title>
						<path d="M0 589.58 A21.6478 26.5429 0 0 1 20.09 578.12 A15.5216 19.0314 -180 0 0 35.05 564.94 A12.1102 14.8486
									 0 0 1 50.93 556.35 A15.7673 19.3327 -180 0 0 64.95 560.36 A11.1886 13.7186 0 0 1 52.8 563.79
									 A5.27894 6.47263 -180 0 0 45.33 568.95 A4.58236 5.61855 0 0 1 41.12 573.53 A14.6447 17.9562
									 0 0 1 49.06 579.26 A7.29645 8.94635 -180 0 0 59.81 583.85 A11.3607 13.9296 0 0 1 43.46 583.85
									 A13.3289 16.3429 -180 0 0 26.17 587.28 A31.5365 25.7205 56.52 0 1 17.18 596.8 A9.68702 11.8775
									 0 0 1 0 589.58 Z" class="st2"/>
					</g>
					<g id="shape14-22" v:mID="14" v:groupContext="shape" transform="translate(-225.562,75.6356) rotate(-29)">
						<title>Sheet.14</title>
						<path d="M23.26 594.24 A5.51462 9.14339 0 0 1 13.29 597 A25.2786 41.9126 0 0 1 9.99 560.25 A18.0542 29.9343
									 -180 0 0 4.15 533.65 A12.0152 19.9216 0 0 1 2.49 506.79 A17.3796 10.4821 -90 0 0 0 488.2 A20.9998
									 12.6656 90 0 1 6.23 511.61 A10.8416 17.9757 -180 0 0 15.78 528.14 A16.2137 26.8828 0 0 1 21.18
									 567.39 A19.7886 32.8101 -180 0 0 23.26 594.24 Z" class="st2"/>
					</g>
					<g id="shape15-24" v:mID="15" v:groupContext="shape" transform="translate(252.232,8.49146) rotate(26)">
						<title>Sheet.15</title>
						<path d="M85.08 601.15 A14.3753 12.4273 -11.52 0 0 77.76 577.36 A15.8652 13.8016 -10.15 0 0 62.51 580.6 A22.7687
									 19.761 10.71 0 1 41.36 577.73 A16.1822 14.1884 -7.73 0 0 25.74 575.38 A14.5833 12.9021 0 0 1
									 15.11 573.9 A13.2225 11.6982 -180 0 0 0 575.38 A18.3364 16.1847 175.92 0 1 17.97 581.96 A5.65673
									 4.97866 -174.01 0 0 27.4 582.51 A8.52099 7.14799 164.92 0 1 14.95 587.31 A10.0721 8.79108 -9.26
									 0 0 31.33 585.28 A11.348 9.96576 7.07 0 1 43.4 587.2 A43.2114 38.1847 -2.92 0 0 71.61 594.19
									 A12.1424 9.9912 163.94 0 1 85.08 601.15 Z" class="st3"/>
					</g>
					<g id="shape16-26" v:mID="16" v:groupContext="shape" transform="translate(75.9775,-7.81258) rotate(6)">
						<title>Sheet.16</title>
						<path d="M80.61 585.08 A33.1866 26.6197 -110.29 0 0 56.61 584.93 A11.1927 13.9538 0 0 1 45.01 577.03 A12.1938
									 15.2019 -180 0 0 28.83 579.67 A9.13377 11.387 0 0 1 20.04 575.28 L13.01 568.27 A7.24473 9.03195
									 -180 0 0 3.16 570.02 A1.91404 2.38622 0 0 1 0 570.02 A5.081 6.33445 -180 0 0 7.03 572.65 A6.21108
									 7.74332 0 0 1 12.66 577.03 L16.53 582.3 A4.46609 5.56785 -180 0 0 10.2 586.24 A7.88288 9.82754
									 0 0 1 4.22 590.19 A5.53659 6.90243 -180 0 0 12.31 587.99 A4.40096 5.48664 0 0 1 18.64 587.56
									 A20.2757 16.2636 -90 0 0 36.22 590.19 A16.538 13.2655 90 0 1 50.99 594.57 A14.3279 11.4927 -90
									 0 0 67.51 598.32 A30.4115 24.3938 -74.08 0 0 80.61 585.08 Z" class="st2"/>
					</g>
					<g id="shape17-28" v:mID="17" v:groupContext="shape" transform="translate(98.8694,-6.93898) rotate(5)">
						<title>Lion Couchant.82</title>
						<path d="M114.78 581.88 A61.5905 57.4959 -83.48 0 0 71.19 580.61 A33.6187 31.3837 97.95 0 1 49.02 585.37
									 A16.1932 15.1166 112.44 0 1 37.26 569.48 A6.43214 6.00452 -67.56 0 0 34.89 562.61 A9.41471 8.78881
									 96.75 0 1 30.18 549.89 A13.5249 12.6257 -57.71 0 0 25.34 565.22 A16.4439 15.3507 86.75 0 1 23.97
									 549.17 A9.92342 9.26371 -118.57 0 0 16.84 536.24 A14.2996 13.349 73.15 0 1 10.45 521.27 A10.8813
									 10.1579 -164.97 0 0 9.67 535.71 A10.9446 10.2169 74.92 0 1 0.98 525.2 A17.0327 15.9004 -57.87
									 0 0 1.36 537.59 A9.61933 8.97983 -108.11 0 0 12.66 542.53 A4.88356 4.5589 163.96 0 1 16.4 548.13
									 A22.784 21.2693 -141.4 0 0 15.62 557.8 A45.1037 42.1052 -90.37 0 0 46.49 600.83 A30.5396 32.7144
									 -180 0 0 70.73 593.16 A49.1007 52.5974 0 0 1 100.66 594.06 A10.1528 9.47784 -65.25 1 0 114.78
									 581.88 Z" class="st4"/>
					</g>
				</g>
			</g>
			<g id="shape18-30" v:mID="18" v:groupContext="shape" transform="translate(374.936,-173.994) rotate(11.8)">
				<title>Sheet.18</title>
				<path d="M57.93 447.15 A43.3004 43.3004 1.06 0 1 77.08 410.34 A12.1953 12.1953 -180 0 0 79.67 389.01 A14.0762 14.0762
							 0 0 1 69.32 407.11 A39.4635 39.4635 -180 0 0 47.67 438.79 A69.0709 69.0709 179.93 0 1 75.47 383.19 A125.184
							 125.184 -0.16 0 0 108.76 345.06 A14.6005 14.6005 0 0 1 130.41 350.87 A13.0189 13.0189 -180 0 0 111.34
							 334.71 A43.6445 43.6445 -180 0 0 91.63 293.34 A12.1342 12.1342 0 0 1 95.83 273.3 A12.2313 12.2313 -180
							 0 0 78.7 290.11 A30.744 30.744 -178.33 0 0 33.13 308.21 L32.16 332.13 A8.52185 8.52185 0.94 1 1 16 330.19
							 A14.3735 14.3735 -179.55 0 0 24.4 356.05 A18.6249 18.6249 -7.09 0 0 45.08 343.12 A61.881 61.881 -1.86
							 0 0 45.08 319.2 A20.9184 20.9184 0 0 1 71.91 297.87 A19.2147 19.2147 -180 1 0 81.28 334.07 A14.6651
							 14.6651 0 1 1 82.25 305.62 A28.4013 28.4013 0 0 1 90.66 350.87 A469.335 469.335 0 0 1 49.29 391.6 A46.5076
							 46.5076 -180 0 0 49.61 459.47 A163.168 163.168 0 0 1 82.9 567.42 A24.3116 24.3116 0 0 1 48.64 586.17
							 A101.663 101.663 17.19 0 1 9 531.83 L0 553.2 A227.728 227.728 -176.21 0 0 41.85 595.54 A34.5083 34.5083
							 -1.31 0 0 95.18 568.07 A144.112 144.112 -1.13 0 0 85.81 502.14 A19.4185 19.4185 0 0 1 103.59 472.4 A15.3042
							 15.3042 -177.77 0 0 77.08 478.87 A53.5064 53.5064 1.07 0 1 93.24 443.96 A6.62999 6.62999 177.87 0 1
							 104.55 441.37 A10.2867 10.2867 -0.59 0 0 84.84 437.49 A809.166 809.166 -179.25 0 0 67.39 460.77 A29.4126
							 29.4126 0.76 0 1 82.9 429.74 A17.3811 17.3811 -178.8 0 0 90.01 403.88 A20.0885 20.0885 0 0 1 77.08 421.98
							 A25.9607 25.9607 -178.75 0 0 57.93 447.15 A43.3004 43.3004 -178.94 0 0 58.01 449.13 A25.9607 25.9607
							 1.25 0 1 57.93 447.15 Z" class="st1"/>
			</g>
			<g id="group19-32" transform="translate(146.918,-347.223) rotate(15)" v:mID="19" v:groupContext="group">
				<title>Sheet.19</title>
				<g id="shape20-33" v:mID="20" v:groupContext="shape" transform="translate(10.5224,0)">
					<title>Sheet.20</title>
					<path d="M147.32 527.6 A69.8885 67.9154 0 0 1 100.1 541.14 A260.077 252.734 -180 0 0 58.28 535.32 A1226.92 1192.28
								 -180 0 0 51.31 523.81 A19.2031 18.6609 -180 0 0 46.42 510.04 A9.14416 8.88599 -180 1 0 31.45 520.08
								 A8.04083 7.81382 -180 0 0 41.78 522.08 A10.3826 10.0894 0 0 1 43.84 530.61 L29.39 523.08 A26.7318
								 25.9771 -180 0 0 13.91 509.04 A9.11026 8.85305 -180 0 0 9.26 526.09 A37.0737 36.027 0 0 1 27.58
								 538.13 A19.7337 19.1766 0 0 1 10.81 534.62 A6.44111 6.25926 -180 0 0 0.75 542.14 A10.0788 9.79424
								 -180 0 0 18.04 549.67 A15.4912 15.0538 0 0 1 30.94 551.17 A12.7554 12.3953 0 0 1 23.07 556.19 A4.08713
								 3.97174 -0 0 0 20.02 562 A10.8301 10.5244 -180 0 0 41 562.21 A8.89625 8.64509 0 0 1 41.26 553.68
								 A7.74428 7.52564 -180 0 0 52.36 558.19 A19.7987 19.2397 0 0 1 36.1 571.73 A29.9949 29.1481 -180
								 0 0 58.03 570.73 L42.16 576 A17.5417 17.0464 -180 0 0 60.87 577.25 L79.45 567.22 L55.07 580.26 A14.2044
								 13.8034 -180 0 0 69.39 579.51 L81.39 573.74 L62.42 583.27 A18.7422 18.2131 -180 0 0 78.94 584.27
								 L99.71 572.24 L81.65 582.77 A7.52136 7.30901 -180 0 0 91.84 585.03 L105.78 577.25 A354.429 344.423
								 -180 0 0 87.58 587.78 A21.0237 20.4301 -180 0 0 108.74 588.54 L128.36 576.25 L112.23 586.28 A10.6923
								 10.3904 0 0 0 118.03 599.07 A14.966 14.5435 -180 0 1 121.78 588.03 A12.5677 12.2129 -180 0 0 126.03
								 600.82 A11.3024 10.9833 0 0 1 128.1 593.05 A11.7837 11.451 -180 0 0 144.87 599.82 A10.3637 10.0711
								 0 0 1 136.87 589.29 A9.1883 8.92889 -180 0 0 151.97 581.77 A26.2038 25.464 0 0 1 163.19 561.45 A21.4477
								 20.8422 -180 0 0 147.32 527.6 Z" class="st1"/>
				</g>
				<g id="group21-35" transform="translate(-1.9984E-014,-25.2341)" v:mID="21" v:groupContext="group">
					<title>Sheet.21</title>
					<g id="shape22-36" v:mID="22" v:groupContext="shape" transform="translate(-167.11,-23.9424) rotate(-20)">
						<title>Sheet.22</title>
						<path d="M0 584.17 A15.417 15.0825 0 0 1 12.35 598.26 A3.94935 3.86365 0 1 1 4.76 596.12 A11.8393 11.5824
									 -180 0 0 0 584.17 Z" class="st5"/>
					</g>
					<g id="shape23-38" v:mID="23" v:groupContext="shape" transform="translate(-443.882,161.734) rotate(-50)">
						<title>Sheet.23</title>
						<path d="M-0 583.94 A15.2118 15.2876 0 0 1 12.18 598.22 A3.89679 3.91621 0 1 1 4.69 596.05 A11.6817 11.7399
									 -180 0 0 0 583.94 Z" class="st5"/>
					</g>
					<g id="shape24-40" v:mID="24" v:groupContext="shape" transform="translate(-529.124,321.81) rotate(-65)">
						<title>Sheet.24</title>
						<path d="M0 583.82 A15.1094 15.3901 0 0 1 12.1 598.2 A3.87055 3.94245 0 1 1 4.66 596.02 A11.603 11.8186 -180
									 0 0 0 583.82 Z" class="st5"/>
					</g>
					<g id="shape25-42" v:mID="25" v:groupContext="shape" transform="translate(-516.25,810.364) rotate(-111)">
						<title>Sheet.25</title>
						<path d="M0 583.8 A15.0875 15.412 0 0 1 12.08 598.2 A3.86493 3.94807 0 1 1 4.66 596.01 A11.5862 11.8354 -180
									 0 0 -0 583.8 Z" class="st5"/>
					</g>
				</g>
			</g>
			<g id="group26-44" transform="translate(542.298,124.858) rotate(60)" v:mID="26" v:groupContext="group">
				<title>Sheet.26</title>
				<g id="shape27-45" v:mID="27" v:groupContext="shape" transform="translate(106.858,-12.9948) rotate(15)">
					<title>Sheet.27</title>
					<path d="M77.56 501.68 L78.89 513.41 A176.003 172.911 90 0 1 89.58 552.94 A16.0764 16.3639 0 0 1 85.4 569.99
								 A17.7225 18.0395 0 0 1 72.59 569.24 A12.0909 11.8785 -90 0 0 54.61 569.74 A8.41975 8.27183 -90 0
								 0 59.42 583.28 A10.8031 10.6133 -90 0 0 71.73 577.01 A16.0813 15.7988 90 0 1 76.16 575.74 A1.35237
								 1.32861 90 0 1 78.13 577.51 A10.351 10.1691 90 0 1 70.99 583.03 A8.27768 8.13225 -90 0 0 66.68 596.81
								 A12.052 11.8403 -90 0 0 86.51 585.53 A20.2155 19.8604 90 0 1 89.46 576.51 A2.73066 2.68269 90 1
								 1 92.42 581.02 A12.0542 11.8424 -90 0 0 102.51 601.07 A11.9815 11.771 -90 0 0 105.47 578.51 A2.22359
								 2.18452 90 0 1 109.53 577.26 A13.0593 12.8299 90 0 1 115.44 585.03 A11.3683 11.1685 -90 0 0 135.88
								 593.3 A13.2084 12.9763 -90 0 0 126.53 576.76 A8.79462 8.9519 0 0 1 123.63 571.41 A17.517 17.2092
								 90 0 1 135.96 580.49 A26.5381 26.0719 -90 0 0 131.63 566.39 L128.6 562.57 A26.5381 26.0719 90 0
								 1 131.63 566.39 L137.74 574.12 A15.5201 15.2474 -90 0 0 134.24 559.17 L119.28 545.85 L133.24 558.17
								 A15.5201 15.2474 90 0 1 134.24 559.17 L137.49 562.07 A12.5674 12.3466 -90 0 0 132.6 550.39 L124.19
								 542.21 L137.83 555.01 A16.5823 16.2909 -90 0 0 133.77 540.97 L117.47 527.45 L131.7 539.19 A6.65456
								 6.53765 -90 0 0 130.56 530.01 L126.36 526.4 A313.583 308.074 90 0 1 119.89 520.84 L126.36 526.4
								 A313.583 308.074 -90 0 0 134.15 532.69 A18.6008 18.274 -90 0 0 128.49 514.86 L125.65 512.67 L125.56
								 512.67 L112.33 502.38 L125.65 512.67 A9.46007 9.29386 -90 0 0 134.58 503.86 A13.2412 13.0086 90
								 0 1 124.19 504.18 A11.1193 10.924 -90 0 0 133.68 496.66 A9.99989 9.82421 90 0 1 126.53 497.37 A10.4257
								 10.2425 -90 0 0 127.24 481.31 A9.16937 9.00828 90 0 1 120.76 491.24 A8.12939 7.98657 -90 0 0 116.58
								 481.03 L116.52 481.2 A45.1763 45.9842 0 0 1 94.63 472.23 A27.4167 27.907 -180 0 0 76.16 464.96 A250.465
								 246.065 -90 0 0 45.5 381.98 L27.82 360.99 A19.0957 19.4372 -180 0 0 6 392.42 A29.8942 30.4288 -180
								 0 0 6.71 392.26 A12.2682 12.0526 90 0 1 13.73 410.06 A212.385 208.653 -90 0 0 17.92 477.24 A15.1214
								 15.3918 -180 0 0 32.45 492.28 A101.02 99.2447 -99.02 0 0 77.56 501.68 Z" class="st1"/>
				</g>
				<g id="group28-47" transform="translate(148.115,2.73138) rotate(15)" v:mID="28" v:groupContext="group">
					<title>Sheet.28</title>
					<g id="shape29-48" v:mID="29" v:groupContext="shape" transform="translate(-564.595,420.988) rotate(-75)">
						<title>Sheet.29</title>
						<path d="M-0 584.51 A15.0081 14.7795 0 0 1 12.02 598.32 A3.8446 3.78604 0 1 1 4.63 596.22 A11.5253 11.3497
									 -180 0 0 0 584.51 Z" class="st5"/>
					</g>
					<g id="shape30-50" v:mID="30" v:groupContext="shape" transform="translate(-549.227,439.839) rotate(-75)">
						<title>Sheet.30</title>
						<path d="M-0 584.51 A15.0081 14.7795 0 0 1 12.02 598.32 A3.8446 3.78604 0 1 1 4.63 596.22 A11.5253 11.3497
									 -180 0 0 0 584.51 Z" class="st5"/>
					</g>
					<g id="shape31-52" v:mID="31" v:groupContext="shape" transform="translate(-518.07,751.628) rotate(-105)">
						<title>Sheet.31</title>
						<path d="M0 584.51 A15.0081 14.7795 0 0 1 12.02 598.32 A3.8446 3.78604 0 1 1 4.63 596.22 A11.5253 11.3497
									 -180 0 0 -0 584.51 Z" class="st5"/>
					</g>
					<g id="shape32-54" v:mID="32" v:groupContext="shape" transform="translate(-496.003,752.43) rotate(-105)">
						<title>Sheet.32</title>
						<path d="M-0 584.51 A15.0081 14.7795 0 0 1 12.02 598.32 A3.8446 3.78604 0 1 1 4.63 596.22 A11.5253 11.3497
									 -180 0 0 -0 584.51 Z" class="st5"/>
					</g>
				</g>
			</g>
			<g id="shape33-56" v:mID="33" v:groupContext="shape" transform="translate(189.389,-238.189)">
				<title>Sheet.33</title>
				<path d="M31.5 599.38 A8.18496 8.18496 0 0 1 19.12 589.26 A49.4783 49.4783 -180 0 0 0 569.01 A29.583 29.583 0 0 1
							 29.25 580.26 A9.80418 9.80418 3.23 1 1 31.5 599.38 Z" class="st5"/>
			</g>
			<g id="shape34-58" v:mID="34" v:groupContext="shape" transform="translate(12.2358,-1.79054)">
				<title>Sheet.34</title>
				<path d="M72.32 307.47 L77.04 303.67 A32.6906 32.6906 0 0 1 72.32 307.47 L62.81 315.14 A19.1182 19.1182 -180 0 0
							 81.23 310.74 L97.63 291.99 L82.45 309.49 A19.1182 19.1182 0 0 1 81.23 310.74 L77.66 314.82 A15.481 15.481
							 -180 0 0 92.03 308.69 L102.11 298.14 L86.34 315.25 A20.4266 20.4266 -14.2 0 0 103.64 310.15 L120.3 289.72
							 L105.84 307.56 A8.19732 8.19732 -180 0 0 117.14 306.13 L121.59 300.86 A386.283 386.283 165.8 0 1 128.43
							 292.75 L121.59 300.86 A386.283 386.283 -14.2 0 0 113.84 310.63 A22.9131 22.9131 -14.2 0 0 135.8 303.53
							 L138.51 299.97 L138.5 299.86 L147.67 287.85 L147.68 287.87 L138.51 299.97 A11.6532 11.6532 -35.19 0
							 0 149.36 311.17 A16.311 16.311 144.81 0 1 148.96 298.15 A13.6972 13.6972 -20.47 0 0 158.22 310.04 A12.3182
							 12.3182 159.53 0 1 157.35 301.08 A12.8428 12.8428 -20.47 0 0 161.93 304.86 L172.55 316.84 A15.1938 15.1938
							 -72.66 0 0 172.74 317.01 L172.69 316.88 A51.6397 51.6397 -144.8 0 0 191.27 280.58 A34.9941 34.9941 -145.36
							 0 0 186.69 245.09 A32.6782 32.6782 18.4 0 1 190.63 279.41 A42.9969 42.9969 18.3 0 1 172.74 317.01 A34.1397
							 34.1397 -69.58 0 0 201.31 338.01 A13.7643 13.7643 119.65 0 1 202.76 359.48 A126.372 126.372 -76.77 0
							 0 189.79 432.16 A16.1902 16.1902 -54.75 0 0 194.58 453.82 A199.017 199.017 -71.75 0 0 231.08 481.65
							 A23.6955 23.6955 -71.66 0 0 236.6 487.19 A223.398 223.398 -71.74 0 0 236.55 486.68 A23.8901 23.8901
							 -71.42 0 0 245.15 491.03 A23.6955 23.6955 -71.42 0 0 252.42 491.54 A54.0408 54.0408 -70.16 0 0 252.24
							 491.86 A23.8901 23.8901 -71.42 0 0 252.46 491.85 A52.8163 52.8163 -72.92 0 0 245.43 517.76 A54.0408
							 54.0408 -70.16 0 0 245.82 524.59 A52.8163 52.8163 107.08 0 1 245.43 517.76 A54.0408 54.0408 109.46 0
							 1 252.24 491.86 A23.8901 23.8901 108.58 0 1 245.15 491.03 A23.6955 23.6955 108.34 0 1 236.6 487.19 A223.398
							 223.398 108.26 0 1 235.61 538.72 A18.3596 18.3596 108.34 0 1 225.15 555.43 A20.2394 20.2394 108.26 0
							 1 211.5 550.1 A13.5654 13.5654 -77.55 0 0 191.8 544.3 A9.44657 9.44657 -77.55 0 0 192.33 560.43 A12.1206
							 12.1206 -64.18 0 0 207.87 558.09 A18.0425 18.0425 113.2 0 1 213.12 558.3 A1.51729 1.51729 157.59 0 1
							 214.65 560.89 A11.6133 11.6133 84.52 0 1 204.98 564.25 A9.28717 9.28717 -75.59 0 0 195.52 577.44 A13.5218
							 13.5218 -125.27 0 0 220.97 572.4 A22.6809 22.6809 108.49 0 1 227.3 563.82 A3.06368 3.06368 165.35 1
							 1 228.95 569.67 A13.5243 13.5243 -89.33 0 0 232.96 594.64 A13.4427 13.4427 -85.9 0 0 244 571.6 A2.49477
							 2.49477 116.16 0 1 248.84 571.7 A14.652 14.652 106.97 0 1 252.57 582.08 A12.7547 12.7547 -73.89 0 0
							 271.9 598.12 A14.8192 14.8192 -70.73 0 0 267.47 577.16 A10.0436 10.0436 107.5 0 1 266.19 570.43 A19.6532
							 19.6532 106.28 0 1 276.43 584.47 A29.7746 29.7746 -73.09 0 0 276.61 567.9 L274.65 562.75 A29.7746 29.7746
							 106.28 0 1 276.61 567.9 L280.58 578.31 A17.4128 17.4128 -73.72 0 0 281.95 561.11 L270.32 541.63 L281.21
							 559.7 A17.4128 17.4128 106.28 0 1 281.95 561.11 L284.48 565.35 A14.1 14.1 -74.17 0 0 283.22 551.17 L276.91
							 539.47 L287.3 557.95 A18.6045 18.6045 -75.28 0 0 287.75 541.53 L274.74 521.35 L286.12 538.9 A7.46611
							 7.46611 -74.17 0 0 288.07 528.7 L284.75 523.36 A351.826 351.826 104.72 0 1 279.65 515.16 L284.75 523.36
							 A351.826 351.826 -74.29 0 0 291.03 532.83 A20.8692 20.8692 -76 0 0 291.07 511.81 L288.74 508.46 L288.64
							 508.43 L277.85 492.79 L288.74 508.46 A10.6138 10.6138 -75.34 0 0 301.5 502.22 A14.8561 14.8561 104.04
							 0 1 290.11 498.9 A12.4754 12.4754 -84.94 0 0 303.01 494.22 A11.2194 11.2194 94.71 0 1 295.01 492.45
							 A11.6972 11.6972 -84.96 0 0 301.34 475.57 A10.2876 10.2876 103.74 0 1 290.86 483.88 A9.1208 9.1208 -74.29
							 0 0 289.86 471.51 L289.74 471.67 A51.5922 51.5922 107.5 0 1 269.08 454.37 A31.3104 31.3104 -72.5 0 0
							 251.54 440.09 A171.576 171.576 -65.97 0 0 259.25 334.53 L242.38 296.28 A59.3648 59.3648 97.37 0 1 236.56
							 254.54 A112.982 112.982 -34 0 0 239 141.03 A52.4656 52.4656 64.72 0 1 173.75 163.53 A29.0006 29.0006
							 70.24 0 1 158 197.28 A65.3486 65.3486 -74.83 0 0 136.06 242.62 A76.1696 76.1696 159.82 0 1 108.77 256.81
							 A283.451 283.451 -20.18 0 0 63.71 266.26 A1337.19 1337.19 -147.47 0 0 52.15 256.73 A20.9289 20.9289
							 -180 0 0 41.87 244.04 A9.96597 9.96597 -180 1 0 30.39 260.19 A8.76348 8.76348 -8.76 0 0 41.73 258.46
							 A11.3157 11.3157 18.47 0 1 47.11 266.68 L29.43 264.13 A29.1342 29.1342 -180 0 0 8.18 255.11 A9.92902
							 9.92902 -180 0 0 9.97 274.81 A40.4056 40.4056 0 0 1 33.35 280.66 A21.5072 21.5072 0 0 1 14.82 283.22
							 A7.01999 7.01999 -180 0 0 7.4 294.9 A10.9846 10.9846 -180 0 0 27.99 296.38 A16.8834 16.8834 0 0 1 41.79
							 293.16 A13.9018 13.9018 165.8 0 1 35.65 301.38 A4.45445 4.45445 -45 0 0 34.76 308.65 A11.8035 11.8035
							 -180 0 0 56.33 301.03 A9.69578 9.69578 0 0 1 53.32 291.95 A8.44028 8.44028 -180 0 0 66.42 292.57 A21.578
							 21.578 0 0 1 54.96 312.91 A32.6906 32.6906 -180 0 0 72.32 307.47 Z" class="st1"/>
			</g>
			<g id="group35-60" transform="translate(364.183,5.21613) rotate(18)" v:mID="35" v:groupContext="group">
				<title>Sheet.35</title>
				<g id="shape36-61" v:mID="36" v:groupContext="shape" transform="translate(-562.335,418.071) rotate(-75)">
					<title>Sheet.36</title>
					<path d="M0 582.17 A16.8582 16.8582 0 0 1 13.5 597.92 A4.31855 4.31855 0 1 1 5.2 595.53 A12.9461 12.9461 -180
								 0 0 0 582.17 Z" class="st5"/>
				</g>
				<g id="shape37-63" v:mID="37" v:groupContext="shape" transform="translate(-544.785,439.221) rotate(-75)">
					<title>Sheet.37</title>
					<path d="M0 582.17 A16.8582 16.8582 0 0 1 13.5 597.92 A4.31855 4.31855 0 1 1 5.2 595.53 A12.9461 12.9461 -180
								 0 0 0 582.17 Z" class="st5"/>
				</g>
				<g id="shape38-65" v:mID="38" v:groupContext="shape" transform="translate(-509.202,750.925) rotate(-105)">
					<title>Sheet.38</title>
					<path d="M0 582.17 A16.8582 16.8582 0 0 1 13.5 597.92 A4.31855 4.31855 0 1 1 5.2 595.53 A12.9461 12.9461 -180
								 0 0 0 582.17 Z" class="st5"/>
				</g>
				<g id="shape39-67" v:mID="39" v:groupContext="shape" transform="translate(-484.002,751.825) rotate(-105)">
					<title>Sheet.39</title>
					<path d="M0 582.17 A16.8582 16.8582 0 0 1 13.5 597.92 A4.31855 4.31855 0 1 1 5.2 595.53 A12.9461 12.9461 -180
								 0 0 0 582.17 Z" class="st5"/>
				</g>
			</g>
			<g id="group40-69" transform="translate(-184.555,-231.996) rotate(-20)" v:mID="40" v:groupContext="group">
				<title>Sheet.40</title>
				<g id="shape41-70" v:mID="41" v:groupContext="shape" transform="translate(-163.489,-31.3185) rotate(-20)">
					<title>Sheet.41</title>
					<path d="M0 582.17 A16.8582 16.8582 0 0 1 13.5 597.92 A4.31855 4.31855 0 1 1 5.2 595.53 A12.9461 12.9461 -180
								 0 0 0 582.17 Z" class="st5"/>
				</g>
				<g id="shape42-72" v:mID="42" v:groupContext="shape" transform="translate(-442.219,155.086) rotate(-50)">
					<title>Sheet.42</title>
					<path d="M0 582.17 A16.8582 16.8582 0 0 1 13.5 597.92 A4.31855 4.31855 0 1 1 5.2 595.53 A12.9461 12.9461 -180
								 0 0 0 582.17 Z" class="st5"/>
				</g>
				<g id="shape43-74" v:mID="43" v:groupContext="shape" transform="translate(-527.627,318.547) rotate(-65)">
					<title>Sheet.43</title>
					<path d="M0 582.17 A16.8582 16.8582 0 0 1 13.5 597.92 A4.31855 4.31855 0 1 1 5.2 595.53 A12.9461 12.9461 -180
								 0 0 0 582.17 Z" class="st5"/>
				</g>
				<g id="shape44-76" v:mID="44" v:groupContext="shape" transform="translate(-512.144,809.78) rotate(-111)">
					<title>Sheet.44</title>
					<path d="M0 582.17 A16.8582 16.8582 0 0 1 13.5 597.92 A4.31855 4.31855 0 1 1 5.2 595.53 A12.9461 12.9461 -180
								 0 0 0 582.17 Z" class="st5"/>
				</g>
			</g>
			<g id="group45-78" transform="translate(207.128,-407.355) rotate(10)" v:mID="45" v:groupContext="group">
				<title>Ounce Passant.165</title>
				<g id="group46-79" transform="translate(-7.99361E-015,-41.808)" v:mID="46" v:groupContext="group">
					<title>Sheet.46</title>
					<g id="group47-80" transform="translate(39.1665,-3.76026)" v:mID="47" v:groupContext="group">
						<title>Sheet.47</title>
						<g id="shape48-81" v:mID="48" v:groupContext="shape" transform="translate(23.0434,1181.93) scale(1,-1)">
							<title>Sheet.48</title>
							<path d="M2.11 581.77 A12.3958 13.2785 -180 0 0 7.04 601.15 A18.7528 20.0882 0 0 1 10.33 583.53 A6.14158
										 6.57895 -180 0 0 2.11 581.77 Z" class="st6"/>
						</g>
						<g id="shape49-83" v:mID="49" v:groupContext="shape" transform="translate(-293.043,76.0331) rotate(-30)">
							<title>Sheet.49</title>
							<path d="M2.48 581.96 A14.621 13.1436 -180 0 0 8.3 601.15 A22.1192 19.8841 0 0 1 12.18 583.71 A7.2441
										 6.5121 -180 0 0 2.48 581.96 Z" class="st6"/>
						</g>
					</g>
				</g>
				<g id="shape50-85" v:mID="50" v:groupContext="shape" transform="translate(-214.414,-14.4181) rotate(-30)">
					<title>Sheet.50</title>
					<path d="M27.12 601.15 A17.7634 17.7634 0 0 1 24.42 600.29 A29.266 29.266 -76.92 0 0 50.81 593.1 A59.0956 59.0956
								 126.43 0 1 41.36 588.99 A14.1642 14.1642 -179.42 0 0 46.7 572.57 A10.567 10.567 6.93 0 1 36.02 581.19
								 A17.3839 17.3839 -5.8 0 0 32.43 559.84 A22.2458 22.2458 0 0 1 10.36 581.81 A8.20714 8.20714 -180
								 0 0 9.74 581.72 A72.0902 72.0902 0 0 1 10.25 581.81 A8.18445 8.18445 -180 0 0 3.27 583.86 A8.20714
								 8.20714 -180 0 0 0.7 590.84 A8.18445 8.18445 0 0 1 3.27 583.86 A8.20714 8.20714 0 0 1 9.74 581.72
								 A72.0902 72.0902 -180 0 0 8.96 581.59 L8.92 581.6 A7.8955 7.8955 -180 0 0 0.7 592.69 A66.2333 66.2333
								 -180 0 0 27.12 601.15 Z" class="st1"/>
				</g>
				<g id="shape51-87" v:mID="51" v:groupContext="shape" transform="translate(30.4307,0)">
					<title>Sheet.51</title>
					<path d="M0 514.34 L26.56 496.79 A4.25922 4.25922 -180 0 0 31.07 502.01 A4.13823 4.13823 89.21 0 1 26.53 496.79
								 A9.45655 9.45655 0 0 1 34.03 487.54 A83.267 83.267 0 0 1 76.25 484.22 A9.45337 9.45337 -180 0 0
								 65.22 494.66 A9.47958 9.47958 0 0 1 76.37 484.22 A25.6948 25.6948 -180 0 0 101.87 458.84 A20.0791
								 20.0791 165.45 0 1 106.02 483.51 A12.2053 12.2053 -153.39 0 0 118.35 473.55 A16.3603 16.3603 2.6
								 0 1 112.18 492.52 A68.2578 68.2578 -68.32 0 0 123.09 497.26 A33.8034 33.8034 96.69 0 1 92.62 505.57
								 A20.5175 20.5175 -180 0 0 108.15 505.57 A33.3743 33.3743 0 0 1 128.19 535.92 A38.2554 38.2554 -180
								 0 0 111.95 520.98 A57.1938 57.1938 0 0 1 113.13 582.65 A13.389 13.389 -113.39 0 0 114.79 601.15
								 A13.3076 13.3076 0 0 1 106.02 577.9 A16.9278 16.9278 -180 0 0 105.07 560.83 A11.1305 11.1305 0 0
								 1 94.4 572.21 A10.1345 10.1345 -26.03 0 0 92.26 591.19 A15.0694 15.0694 135 0 1 81.11 567.94 A8.57627
								 8.57627 -6.31 0 0 73.05 578.85 A9.04965 9.04965 0 0 1 61.67 586.92 A8.0691 8.0691 -180 0 0 64.28
								 576.01 A14.4587 14.4587 135 0 1 60.52 564.52 A7.90675 7.90675 -45 0 0 55.1 574.86 A8.47265 8.47265
								 135 0 1 40.24 581.97 A5.29321 5.29321 -135 0 0 45.73 572.92 A6.69347 6.69347 45 0 1 47.26 563.87
								 L23.27 563.55 A6.65664 6.65664 135 0 1 14.54 553.53 A19.8658 19.8658 135 0 1 31.99 551.59 A33.5534
								 33.5534 -180 0 0 49.85 551.11 A11.5992 11.5992 -62.44 0 0 44.35 528.57 A443.09 443.09 -180 0 0 26.56
								 532.84 A14.6343 14.6343 0 0 1 8.06 536.16 A10.0954 10.0954 156.61 0 1 5.46 522.88 L0 514.34 Z"
							class="st1"/>
				</g>
				<g id="shape52-89" v:mID="52" v:groupContext="shape" transform="translate(32.2088,-75.114)">
					<title>Sheet.52</title>
					<path d="M0.17 589.64 A6.73303 6.73303 172.61 0 1 12.26 589.64 A11.5555 11.5555 -160.11 0 0 17.96 589.64 A8.77205
								 8.77205 15.25 0 1 12.26 589.64 A27.0911 27.0911 -27.88 0 0 9.89 594.86 A3.80885 3.80885 -17.25 1
								 0 5.86 601.15 A10.8127 10.8127 178.9 0 1 0.17 589.64 Z" class="st7"/>
				</g>
				<g id="group53-91" transform="translate(633.601,196.249) rotate(60)" v:mID="53" v:groupContext="group">
					<title>Sheet.53</title>
					<g id="shape54-92" v:mID="54" v:groupContext="shape" transform="translate(-419.95,179.927) rotate(-45)">
						<title>Lion Couchant.93</title>
						<path d="M-0 592.49 A23.676 21.5019 79.65 0 1 19.05 581.17 A23.6814 25.3679 0 0 1 19.62 591.88 A4.06623 4.3558
									 0 0 1 14.71 593.7 A4.13031 4.42445 0 1 1 8.68 593.7 A14.9442 16.0084 -180 0 0 -0 592.49 Z"
								class="st8"/>
					</g>
				</g>
				<g id="shape55-94" v:mID="55" v:groupContext="shape" transform="translate(683.957,651.766) rotate(101.818)">
					<title>Sheet.55</title>
					<path d="M0 601.15 A18.2833 15.9113 0 0 1 30.38 601.15" class="st9"/>
				</g>
				<g id="group56-97" transform="translate(67.404,-83.9585)" v:mID="56" v:groupContext="group">
					<title>Sheet.56</title>
					<g id="shape57-98" v:mID="57" v:groupContext="shape">
						<title>Sheet.57</title>
						<path d="M2.8 578.8 A4.64729 4.64729 -180 0 0 5.77 587.58 A15.915 15.915 0 0 1 21.78 590.9 A6.63455 6.63455
									 -180 0 0 31.74 590.66 A6.09956 6.09956 0 0 1 21.89 590.9 A6.19781 6.19781 0 0 1 20.47 599.44
									 A9.7316 9.7316 0 0 1 6.51 596.24 A4.05517 4.05517 -180 0 0 2.33 599.91 A4.1211 4.1211 0 0 1
									 6.48 596.18 A12.9682 12.9682 0 0 1 5.71 587.58 A4.64408 4.64408 0 0 1 2.8 578.8 Z" class="st1"/>
					</g>
					<g id="shape58-100" v:mID="58" v:groupContext="shape" transform="translate(9.24125,-3.40749)">
						<title>Sheet.58</title>
						<path d="M0.57 590.77 A8.6349 7.90206 -180 0 0 6.1 601.15 A11.2389 10.285 -180 0 1 5.68 591.03 A6.01819 5.50743
									 -0 0 0 0.57 590.77 Z" class="st10"/>
					</g>
				</g>
			</g>
			<g id="group59-102" transform="translate(242.578,-414.258)" v:mID="59" v:groupContext="group">
				<title>Sheet.59</title>
				<g id="shape60-103" v:mID="60" v:groupContext="shape">
					<title>Sheet.60</title>
					<path d="M0.37 521.63 A34.1266 22.8702 -115 0 0 1.1 526.66 A34.1266 22.8702 -115 0 0 11.47 548.32 A11.1371 7.46363
								 65 0 1 13.16 566.44 A8.50706 5.70107 -115 0 0 22 579.96 A5.55602 3.72341 65 0 1 19.04 570 A17.1605
								 11.5002 -115 0 0 23.79 561.49 A24.0857 14.6616 57 0 1 24.34 569.37 A15.6738 9.54107 -123 0 0 34.74
								 587.8 A13.6738 8.32361 57 0 1 41.04 601.15 A16.5222 10.0575 -123 0 0 35.16 583.01 A23.5492 14.335
								 57 0 1 34.44 567.97 A24.4294 14.8708 -123 0 0 34.55 565.64 A15.499 10.7192 -138 0 0 47.17 575.56
								 A13.5213 9.35138 42 0 1 56.43 586.89 A16.3378 11.2993 -138 0 0 46.62 570.57 A13.985 9.67212 42 0
								 1 42.76 555.64 A20.9147 14.4647 -138 0 0 42.79 554.51 A7.14092 5.9255 18.32 0 1 45.35 558.45 A8.42973
								 7.01848 -163.69 0 0 52.18 569.15 A6.9953 5.48584 36.85 0 1 50.65 560.74 A10.4881 8.68842 -160.77
								 0 0 48.75 548.68 A11.102 9.23673 167.23 0 1 42.52 536.62 A13.3552 12.5616 -88 0 0 58.86 538.44 A11.6511
								 10.9587 92 0 1 70.48 541.61 A14.0781 13.2415 -88 0 0 55.97 534.18 A13.3855 12.5901 92 0 1 45.93
								 523.2 A17.5851 12.5475 -21.97 0 0 21.41 516.34 A21.9955 20.6884 92 0 1 19.01 516.87 A28.9028 24.0476
								 -12.75 0 0 15.67 517.11 A21.9955 20.6884 92 0 1 4.56 513.44 A6.12963 5.76538 -88 0 0 2.64 514.3
								 A6.59681 4.4209 -115 0 0 0.02 518.96 A6.12963 5.76538 -88 0 0 0.37 521.63 Z" class="st1"/>
				</g>
				<g id="group61-105" transform="translate(269.126,1053.33) rotate(-28) scale(1,-1)" v:mID="61"
						v:groupContext="group">
					<title>Sheet.61</title>
					<g id="shape62-106" v:mID="62" v:groupContext="shape" transform="translate(206.736,29.3769) rotate(20)">
						<title>Sheet.62</title>
						<path d="M20.75 595.78 A4.91976 7.11353 0 0 1 11.86 597.92 A22.5518 32.6079 0 0 1 8.91 569.33 A16.1067 23.2888
									 -180 0 0 3.7 548.63 A10.7192 15.499 0 0 1 2.22 527.74 A13.5213 9.35138 -90 0 0 0 513.28 A16.3378
									 11.2993 90 0 1 5.56 531.49 A9.67212 13.985 -180 0 0 14.08 544.35 A14.4647 20.9147 0 0 1 18.9
									 574.88 A17.654 25.5262 -180 0 0 20.75 595.78 Z" class="st2"/>
					</g>
					<g id="shape63-108" v:mID="63" v:groupContext="shape" transform="translate(55.1543,0.542798) rotate(5)">
						<title>Sheet.63</title>
						<path d="M18.47 591.15 A7.7608 4.7242 90 0 1 11.87 600.36 A25.1062 41.2438 0 0 1 9.23 564.07 A14.6616 24.0857
									 -180 0 0 3.3 543.48 A9.54107 15.6738 0 0 1 1.98 522.35 A13.6738 8.32361 -90 0 0 -0 507.72 A16.5222
									 10.0575 90 0 1 4.95 526.14 A14.335 23.5492 -180 0 0 12.53 539.14 A14.8708 24.4294 0 0 1 16.82
									 570.02 A15.7137 25.8142 -180 0 0 18.47 591.15 Z" class="st3"/>
					</g>
					<g id="shape64-110" v:mID="64" v:groupContext="shape"
							transform="translate(536.326,299.407) rotate(60) scale(-1,1)">
						<title>Sheet.64</title>
						<path d="M5.16 599.65 A28.9028 24.0476 75.25 0 1 5.1 564.68 A25.2804 20.3626 62.02 0 1 18.75 559.16 A11.102
									 9.23673 -104.77 0 0 30.8 552.63 A10.4881 8.68842 107.23 0 1 42.79 550.3 A6.9953 5.48584 -55.15
									 0 0 51.14 548.48 A8.42973 7.01848 104.31 0 1 40.69 555.68 A7.14092 5.9255 -73.68 0 0 35.33 562.12
									 A9.56166 11.3607 0 0 1 24.55 568.52 A30.4315 24.6902 -115.71 0 0 12.5 591.17 A7.21838 5.65466
									 54.91 0 1 5.16 599.65 Z" class="st3"/>
					</g>
					<g id="shape65-112" v:mID="65" v:groupContext="shape" transform="translate(-29.1811,1.58888) rotate(-3)">
						<title>Sheet.65</title>
						<path d="M10.67 596.22 A4.4209 6.59681 -180 1 0 18.7 591.08 A22.0657 32.9261 0 0 1 17.56 563.1 A17.1605 11.5002
									 -90 0 0 6.84 543.68 A5.55602 3.72341 90 0 1 5.31 533.4 A5.70107 8.50706 -180 0 0 3.01 549.39
									 A7.46363 11.1371 0 0 1 9.14 566.52 A22.8702 34.1266 -180 0 0 10.67 596.22 Z" class="st2"/>
					</g>
					<g id="shape66-114" v:mID="66" v:groupContext="shape" transform="translate(523.781,280.115) rotate(60)">
						<title>Sheet.66</title>
						<path d="M25.85 596.79 A6.12963 5.76538 0 0 1 14.77 598.53 A28.0977 26.428 0 0 1 11.1 575.36 A20.0677 18.8751
									 -180 0 0 4.62 558.59 A13.3552 12.5616 0 0 1 2.77 541.65 A11.6511 10.9587 -180 0 0 0 529.93 A14.0781
									 13.2415 0 0 1 6.92 544.69 A13.3855 12.5901 -180 0 0 17.54 555.11 A17.5851 12.5475 113.97 0 1
									 23.54 579.86 A21.9955 20.6884 -180 0 0 25.85 596.79 Z" class="st2"/>
					</g>
				</g>
			</g>
			<g id="group67-116" transform="translate(53.4375,-43.2)" v:mID="67" v:groupContext="group">
				<title>Sheet.67</title>
				<g id="shape68-117" v:mID="68" v:groupContext="shape" transform="translate(181.406,-327.656)">
					<title>Circle.27</title>
					<v:userDefs>
						<v:ud v:nameU="visVersion" v:val="VT0(14):26"/>
					</v:userDefs>
					<path d="M0 591.92 A9.225 9.225 0 1 1 18.45 591.92 A9.225 9.225 0 0 1 0 591.92 Z" class="st11"/>
				</g>
				<g id="shape69-119" v:mID="69" v:groupContext="shape" transform="translate(164.362,-395.1)">
					<title>Circle.109</title>
					<v:userDefs>
						<v:ud v:nameU="visVersion" v:val="VT0(14):26"/>
					</v:userDefs>
					<path d="M0 591.92 A9.225 9.225 0 1 1 18.45 591.92 A9.225 9.225 0 0 1 0 591.92 Z" class="st12"/>
				</g>
				<g id="shape70-121" v:mID="70" v:groupContext="shape" transform="translate(165.712,-423.45)">
					<title>Circle.26</title>
					<v:userDefs>
						<v:ud v:nameU="visVersion" v:val="VT0(14):26"/>
					</v:userDefs>
					<path d="M0 591.92 A9.225 9.225 0 1 1 18.45 591.92 A9.225 9.225 0 0 1 0 591.92 Z" class="st13"/>
				</g>
				<g id="shape71-123" v:mID="71" v:groupContext="shape" transform="translate(128.925,-338.775)">
					<title>Circle.75</title>
					<v:userDefs>
						<v:ud v:nameU="visVersion" v:val="VT0(14):26"/>
					</v:userDefs>
					<path d="M0 591.92 A9.225 9.225 0 1 1 18.45 591.92 A9.225 9.225 0 0 1 0 591.92 Z" class="st14"/>
				</g>
				<g id="shape72-125" v:mID="72" v:groupContext="shape" transform="translate(150.975,-311.625)">
					<title>Circle.28</title>
					<v:userDefs>
						<v:ud v:nameU="visVersion" v:val="VT0(14):26"/>
					</v:userDefs>
					<path d="M0 591.92 A9.225 9.225 0 1 1 18.45 591.92 A9.225 9.225 0 0 1 0 591.92 Z" class="st13"/>
				</g>
				<g id="shape73-127" v:mID="73" v:groupContext="shape" transform="translate(106.875,-311.625)">
					<title>Circle.29</title>
					<v:userDefs>
						<v:ud v:nameU="visVersion" v:val="VT0(14):26"/>
					</v:userDefs>
					<path d="M0 591.92 A9.225 9.225 0 1 1 18.45 591.92 A9.225 9.225 0 0 1 0 591.92 Z" class="st12"/>
				</g>
				<g id="shape74-129" v:mID="74" v:groupContext="shape" transform="translate(121.5,-277.875)">
					<title>Circle.33</title>
					<v:userDefs>
						<v:ud v:nameU="visVersion" v:val="VT0(14):26"/>
					</v:userDefs>
					<path d="M0 591.92 A9.225 9.225 0 1 1 18.45 591.92 A9.225 9.225 0 0 1 0 591.92 Z" class="st11"/>
				</g>
				<g id="shape75-131" v:mID="75" v:groupContext="shape" transform="translate(165.375,-282.937)">
					<title>Circle.40</title>
					<v:userDefs>
						<v:ud v:nameU="visVersion" v:val="VT0(14):26"/>
					</v:userDefs>
					<path d="M0 591.92 A9.225 9.225 0 1 1 18.45 591.92 A9.225 9.225 0 0 1 0 591.92 Z" class="st14"/>
				</g>
				<g id="shape76-133" v:mID="76" v:groupContext="shape" transform="translate(67.5,-321.75)">
					<title>Circle.39</title>
					<v:userDefs>
						<v:ud v:nameU="visVersion" v:val="VT0(14):26"/>
					</v:userDefs>
					<path d="M0 591.92 A9.225 9.225 0 1 1 18.45 591.92 A9.225 9.225 0 0 1 0 591.92 Z" class="st11"/>
				</g>
				<g id="shape77-135" v:mID="77" v:groupContext="shape" transform="translate(31.5,-338.062)">
					<title>Circle.42</title>
					<v:userDefs>
						<v:ud v:nameU="visVersion" v:val="VT0(14):26"/>
					</v:userDefs>
					<path d="M0 591.92 A9.225 9.225 0 1 1 18.45 591.92 A9.225 9.225 0 0 1 0 591.92 Z" class="st12"/>
				</g>
				<g id="shape78-137" v:mID="78" v:groupContext="shape" transform="translate(0,-356.062)">
					<title>Circle.43</title>
					<v:userDefs>
						<v:ud v:nameU="visVersion" v:val="VT0(14):26"/>
					</v:userDefs>
					<path d="M0 591.92 A9.225 9.225 0 1 1 18.45 591.92 A9.225 9.225 0 0 1 0 591.92 Z" class="st13"/>
				</g>
				<g id="shape79-139" v:mID="79" v:groupContext="shape" transform="translate(-212.363,-193.494) rotate(-30)">
					<title>Circle.37</title>
					<v:userDefs>
						<v:ud v:nameU="visVersion" v:val="VT0(14):26"/>
					</v:userDefs>
					<path d="M0 591.92 A9.225 9.225 0 1 1 18.45 591.92 A9.225 9.225 0 0 1 0 591.92 Z" class="st14"/>
				</g>
				<g id="shape80-141" v:mID="80" v:groupContext="shape" transform="translate(-251.696,-189.621) rotate(-30)">
					<title>Circle.41</title>
					<v:userDefs>
						<v:ud v:nameU="visVersion" v:val="VT0(14):26"/>
					</v:userDefs>
					<path d="M0 591.92 A9.225 9.225 0 1 1 18.45 591.92 A9.225 9.225 0 0 1 0 591.92 Z" class="st12"/>
				</g>
				<g id="shape81-143" v:mID="81" v:groupContext="shape" transform="translate(-287.976,-189.46) rotate(-30)">
					<title>Circle.49</title>
					<v:userDefs>
						<v:ud v:nameU="visVersion" v:val="VT0(14):26"/>
					</v:userDefs>
					<path d="M0 591.92 A9.225 9.225 0 1 1 18.45 591.92 A9.225 9.225 0 0 1 0 591.92 Z" class="st13"/>
				</g>
				<g id="shape82-145" v:mID="82" v:groupContext="shape" transform="translate(154.125,-245.812)">
					<title>Circle.32</title>
					<v:userDefs>
						<v:ud v:nameU="visVersion" v:val="VT0(14):26"/>
					</v:userDefs>
					<path d="M0 591.92 A9.225 9.225 0 1 1 18.45 591.92 A9.225 9.225 0 0 1 0 591.92 Z" class="st12"/>
				</g>
				<g id="shape83-147" v:mID="83" v:groupContext="shape" transform="translate(186.187,-227.812)">
					<title>Circle.34</title>
					<v:userDefs>
						<v:ud v:nameU="visVersion" v:val="VT0(14):26"/>
					</v:userDefs>
					<path d="M0 591.92 A9.225 9.225 0 1 1 18.45 591.92 A9.225 9.225 0 0 1 0 591.92 Z" class="st11"/>
				</g>
				<g id="shape84-149" v:mID="84" v:groupContext="shape" transform="translate(173.25,-193.5)">
					<title>Circle.35</title>
					<v:userDefs>
						<v:ud v:nameU="visVersion" v:val="VT0(14):26"/>
					</v:userDefs>
					<path d="M0 591.92 A9.225 9.225 0 1 1 18.45 591.92 A9.225 9.225 0 0 1 0 591.92 Z" class="st13"/>
				</g>
				<g id="shape85-151" v:mID="85" v:groupContext="shape" transform="translate(194.625,-161.437)">
					<title>Circle.36</title>
					<v:userDefs>
						<v:ud v:nameU="visVersion" v:val="VT0(14):26"/>
					</v:userDefs>
					<path d="M0 591.92 A9.225 9.225 0 1 1 18.45 591.92 A9.225 9.225 0 0 1 0 591.92 Z" class="st12"/>
				</g>
				<g id="shape86-153" v:mID="86" v:groupContext="shape" transform="translate(159.75,-151.312)">
					<title>Circle.50</title>
					<v:userDefs>
						<v:ud v:nameU="visVersion" v:val="VT0(14):26"/>
					</v:userDefs>
					<path d="M0 591.92 A9.225 9.225 0 1 1 18.45 591.92 A9.225 9.225 0 0 1 0 591.92 Z" class="st14"/>
				</g>
				<g id="shape87-155" v:mID="87" v:groupContext="shape" transform="translate(186.75,-91.125)">
					<title>Circle.51</title>
					<v:userDefs>
						<v:ud v:nameU="visVersion" v:val="VT0(14):26"/>
					</v:userDefs>
					<path d="M0 591.92 A9.225 9.225 0 1 1 18.45 591.92 A9.225 9.225 0 0 1 0 591.92 Z" class="st14"/>
				</g>
				<g id="shape88-157" v:mID="88" v:groupContext="shape" transform="translate(217.125,-72)">
					<title>Circle.52</title>
					<v:userDefs>
						<v:ud v:nameU="visVersion" v:val="VT0(14):26"/>
					</v:userDefs>
					<path d="M0 591.92 A9.225 9.225 0 1 1 18.45 591.92 A9.225 9.225 0 0 1 0 591.92 Z" class="st11"/>
				</g>
				<g id="shape89-159" v:mID="89" v:groupContext="shape" transform="translate(210.375,-35.4375)">
					<title>Circle.53</title>
					<v:userDefs>
						<v:ud v:nameU="visVersion" v:val="VT0(14):26"/>
					</v:userDefs>
					<path d="M0 591.92 A9.225 9.225 0 1 1 18.45 591.92 A9.225 9.225 0 0 1 0 591.92 Z" class="st12"/>
				</g>
				<g id="shape90-161" v:mID="90" v:groupContext="shape" transform="translate(207,0)">
					<title>Circle.54</title>
					<v:userDefs>
						<v:ud v:nameU="visVersion" v:val="VT0(14):26"/>
					</v:userDefs>
					<path d="M0 591.92 A9.225 9.225 0 1 1 18.45 591.92 A9.225 9.225 0 0 1 0 591.92 Z" class="st13"/>
				</g>
				<g id="shape91-163" v:mID="91" v:groupContext="shape" transform="translate(-385.879,143.529) rotate(-55)">
					<title>Circle.55</title>
					<v:userDefs>
						<v:ud v:nameU="visVersion" v:val="VT0(14):26"/>
					</v:userDefs>
					<path d="M0 591.92 A9.225 9.225 0 1 1 18.45 591.92 A9.225 9.225 0 0 1 0 591.92 Z" class="st14"/>
				</g>
				<g id="shape92-165" v:mID="92" v:groupContext="shape" transform="translate(-417.379,157.029) rotate(-55)">
					<title>Circle.56</title>
					<v:userDefs>
						<v:ud v:nameU="visVersion" v:val="VT0(14):26"/>
					</v:userDefs>
					<path d="M0 591.92 A9.225 9.225 0 1 1 18.45 591.92 A9.225 9.225 0 0 1 0 591.92 Z" class="st12"/>
				</g>
				<g id="shape93-167" v:mID="93" v:groupContext="shape" transform="translate(-447.191,168.842) rotate(-55)">
					<title>Circle.57</title>
					<v:userDefs>
						<v:ud v:nameU="visVersion" v:val="VT0(14):26"/>
					</v:userDefs>
					<path d="M0 591.92 A9.225 9.225 0 1 1 18.45 591.92 A9.225 9.225 0 0 1 0 591.92 Z" class="st13"/>
				</g>
				<g id="shape94-169" v:mID="94" v:groupContext="shape" transform="translate(128.25,-170.437)">
					<title>Circle.58</title>
					<v:userDefs>
						<v:ud v:nameU="visVersion" v:val="VT0(14):26"/>
					</v:userDefs>
					<path d="M0 591.92 A9.225 9.225 0 1 1 18.45 591.92 A9.225 9.225 0 0 1 0 591.92 Z" class="st12"/>
				</g>
				<g id="shape95-171" v:mID="95" v:groupContext="shape" transform="translate(95.625,-154.125)">
					<title>Circle.59</title>
					<v:userDefs>
						<v:ud v:nameU="visVersion" v:val="VT0(14):26"/>
					</v:userDefs>
					<path d="M0 591.92 A9.225 9.225 0 1 1 18.45 591.92 A9.225 9.225 0 0 1 0 591.92 Z" class="st11"/>
				</g>
				<g id="shape96-173" v:mID="96" v:groupContext="shape" transform="translate(106.312,-188.437)">
					<title>Circle.60</title>
					<v:userDefs>
						<v:ud v:nameU="visVersion" v:val="VT0(14):26"/>
					</v:userDefs>
					<path d="M0 591.92 A9.225 9.225 0 1 1 18.45 591.92 A9.225 9.225 0 0 1 0 591.92 Z" class="st13"/>
				</g>
				<g id="shape97-175" v:mID="97" v:groupContext="shape" transform="translate(156.937,-111.375)">
					<title>Circle.61</title>
					<v:userDefs>
						<v:ud v:nameU="visVersion" v:val="VT0(14):26"/>
					</v:userDefs>
					<path d="M0 591.92 A9.225 9.225 0 1 1 18.45 591.92 A9.225 9.225 0 0 1 0 591.92 Z" class="st13"/>
				</g>
				<g id="shape98-177" v:mID="98" v:groupContext="shape" transform="translate(186.187,-127.687)">
					<title>Circle.62</title>
					<v:userDefs>
						<v:ud v:nameU="visVersion" v:val="VT0(14):26"/>
					</v:userDefs>
					<path d="M0 591.92 A9.225 9.225 0 1 1 18.45 591.92 A9.225 9.225 0 0 1 0 591.92 Z" class="st11"/>
				</g>
			</g>
		</g>
	</g>
</svg>
