<?xml version="1.0" encoding="UTF-8" standalone="no"?>
<!DOCTYPE svg PUBLIC "-//W3C//DTD SVG 1.0//EN" "http://www.w3.org/TR/2001/REC-SVG-20010904/DTD/svg10.dtd">
<!-- Generated by Microsoft Visio 11.0, SVG Export, v1.0 Natural_Tiger_Rampant.svg Page-1 -->
<svg xmlns="http://www.w3.org/2000/svg" xmlns:xlink="http://www.w3.org/1999/xlink" xmlns:ev="http://www.w3.org/2001/xml-events"
		xmlns:v="http://schemas.microsoft.com/visio/2003/SVGExtensions/" width="6.13704in" height="7.48609in"
		viewBox="0 0 441.867 538.998" xml:space="preserve" color-interpolation-filters="sRGB" class="st12">
	<title>Natural Tiger Rampant</title>
	<v:documentProperties v:langID="1033" v:viewMarkup="false"/>

	<style type="text/css">
	<![CDATA[
		.st1 {fill:#ffff00;stroke:#000000;stroke-linecap:round;stroke-linejoin:round;stroke-width:2.25}
		.st2 {fill:#ff0000;stroke:#000000;stroke-linecap:round;stroke-linejoin:round;stroke-width:2.25}
		.st3 {fill:#000000;stroke:#000000;stroke-linecap:round;stroke-linejoin:round;stroke-width:1.5}
		.st4 {fill:#ff0000;stroke:#000000;stroke-linecap:round;stroke-linejoin:round;stroke-width:2.16}
		.st5 {fill:#ffff00;stroke:#000000;stroke-linecap:round;stroke-linejoin:round;stroke-width:2.16}
		.st6 {fill:#000000;stroke:#000000;stroke-linecap:round;stroke-linejoin:round;stroke-width:2.25}
		.st7 {fill:#ffffff;stroke:#000000;stroke-linecap:round;stroke-linejoin:round;stroke-width:2.25}
		.st8 {fill:#ffffff;stroke:#000000;stroke-linecap:round;stroke-linejoin:round;stroke-width:1.5}
		.st9 {stroke:#000000;stroke-linecap:round;stroke-linejoin:round;stroke-width:2.25}
		.st10 {fill:#000000;stroke:#000000;stroke-linecap:round;stroke-linejoin:round;stroke-width:1.2}
		.st11 {fill:#000000;stroke:#000000;stroke-linecap:round;stroke-linejoin:round;stroke-width:0.25}
		.st12 {fill:none;fill-rule:evenodd;font-size:12px;overflow:visible;stroke-linecap:square;stroke-miterlimit:3}
	]]>
	</style>

	<g v:mID="0" v:index="1" v:groupContext="foregroundPage">
		<title>Page-1</title>
		<v:pageProperties v:drawingScale="1" v:pageScale="1" v:drawingUnits="19" v:shadowOffsetX="9" v:shadowOffsetY="-9"/>
		<g id="group1-1" transform="translate(2.16,-2.16)" v:mID="1" v:groupContext="group">
			<title>Natural Tiger Rampant</title>
			<g id="group2-2" transform="translate(17.8959,-84.6)" v:mID="2" v:groupContext="group">
				<title>Sheet.2</title>
				<g id="shape3-3" v:mID="3" v:groupContext="shape" transform="translate(16.303,0)">
					<title>Sheet.3</title>
					<path d="M42.98 461.37 A9.86367 9.31735 90 0 1 42.86 462.09 A18.2766 17.2644 -90 0 0 44.89 471.94 A15.2731 14.4272
								 90 0 1 42.86 462.09 A12.5621 11.8663 90 0 1 42.98 461.37 A9.86367 9.31735 -90 0 0 27 453.18 A11.3237
								 10.6965 -90 0 0 26.55 468.71 A20.5767 19.437 90 0 1 27.76 469.95 A11.3237 10.6965 -90 0 0 28.08
								 470.21 a0.734082 0.693423 90 0 1 -0.315932 -0.264342 A11.3237 10.6965 90 0 1 26.55 468.71 A20.5767
								 19.437 -90 0 0 12.05 463.63 A9.67864 9.14257 -90 0 0 9.72 479.44 A13.9278 13.1564 -90 0 0 19.8 484.03
								 A9.19815 8.68869 90 0 1 21.39 483.99 A7.49159 7.07666 90 0 1 28.17 488.36 A9.19815 8.68869 -90 0
								 0 21.39 483.99 A7.49159 7.07666 -90 0 0 19.64 484.32 A35.0362 33.0957 -90 0 0 5.09 485.22 A10.4604
								 9.881 -90 1 0 17.7 500.76 A9.51072 8.98395 90 0 1 30.34 500.65 A19.5876 18.5027 -90 0 0 43.19 506.94
								 A9.2405 8.72869 90 0 1 51.43 513.54 A27.9313 26.3843 -90 0 0 65.64 526.15 A12.1055 11.435 -90 0
								 0 74.5 522.23 A13.4711 12.9098 96.01 0 1 70.87 538.92 A27.6463 26.4943 -83.99 0 0 83.36 530.63 L86.28
								 526.48 A27.6463 26.4943 96.01 0 1 83.36 530.63 L77.48 539 A16.1682 15.4944 -83.99 0 0 91.02 531.31
								 L100.01 512.37 L91.72 530.02 A16.1682 15.4944 96.01 0 1 91.02 531.31 L89.06 535.43 A13.0922 12.5466
								 -83.99 0 0 99.07 527.24 L104.8 516.39 L95.96 533.85 A17.2747 16.5549 -83.99 0 0 108.47 525.85 L117.32
								 505.48 L109.66 523.24 A6.93244 6.64356 -83.99 0 0 118.23 519.57 L120.63 514.27 A326.678 313.065
								 96.01 0 1 124.32 506.14 L120.63 514.27 A326.678 313.065 -83.99 0 0 116.57 523.97 A19.3775 18.57
								 -83.99 0 0 132.33 513.3 L133.71 509.79 L133.69 509.7 L140.2 493.35 L133.71 509.79 A9.85509 9.44443
								 -83.99 0 0 144.53 516.51 A13.7942 13.2194 96.01 0 1 141.53 505.98 A11.5836 11.1009 -83.99 0 0 151.25
								 513.61 A10.4175 9.98337 96.01 0 1 148.72 506.5 A10.8611 10.4085 -83.99 0 0 164.41 502.82 A9.55226
								 9.15422 96.01 0 1 153.14 498.92 A8.46886 8.11596 -83.99 0 0 161.92 491.85 L161.74 491.84 A47.9044
								 45.9082 96.01 0 1 164.75 466.99 A43.3206 41.65 -90.97 0 0 176.63 438.26 A177.07 169.936 -85.31 0
								 0 197.25 428.02 L197.25 428.83 A250.465 246.065 -15 0 0 236.95 396.1 L252.65 373.59 A19.4372 19.0957
								 -15 0 0 216.64 360.64 A30.4288 29.8942 -15 0 0 216.98 361.29 A12.2682 12.0526 165 0 1 201.61 372.68
								 A212.385 208.653 -15 0 0 199.5 373.05 L199.5 368.06 A221.253 212.034 -83.99 0 0 140.05 389.92 A16.0346
								 15.3664 -83.99 0 0 129.28 408.9 A78.0998 74.4019 -81.49 0 0 132.75 444.81 A18.4994 19.5841 0 0 1
								 120.89 462.18 A183.352 175.712 96.01 0 1 85.47 483.95 A17.0472 16.3369 96.01 0 1 81.74 485.87 A56.0707
								 52.9651 90 0 1 67.9 481.31 A8.14699 7.69575 90 0 1 61.9 470.59 A11.8958 11.2369 -90 0 0 57.37 451.77
								 A12.5621 11.8663 -90 0 0 42.98 461.37 ZM29.76 472.03 L28.04 470.27 A2.10432 1.98777 90 0 1 28.6
								 470.6 A60.2881 56.9489 -90 0 0 29.76 472.03 L35.64 478.04 A60.2881 56.9489 90 0 1 29.76 472.03 Z"
							class="st1"/>
				</g>
				<g id="group4-5" transform="translate(329.483,76.8909) rotate(40)" v:mID="4" v:groupContext="group">
					<title>Lion Rampant.67</title>
					<g id="shape5-6" v:mID="5" v:groupContext="shape" transform="translate(-315.747,58.5585) rotate(-41)">
						<title>Sheet.5</title>
						<path d="M-0 516.73 A19.7547 19.7819 0 0 1 15.82 535.21 A5.06053 5.0675 0 1 1 6.1 532.41 A15.1703 15.1912
									 -180 0 0 0 516.73 Z" class="st2"/>
					</g>
					<g id="shape6-8" v:mID="6" v:groupContext="shape" transform="translate(-391.103,137.917) rotate(-50)">
						<title>Sheet.6</title>
						<path d="M-0 516.77 A19.7853 19.7513 0 0 1 15.84 535.22 A5.06836 5.05966 0 1 1 6.11 532.42 A15.1938 15.1678
									 -180 0 0 0 516.77 Z" class="st2"/>
					</g>
					<g id="shape7-10" v:mID="7" v:groupContext="shape" transform="translate(-513.732,449.77) rotate(-83.7)">
						<title>Sheet.7</title>
						<path d="M0 516.85 A19.8637 19.6729 0 0 1 15.91 535.23 A5.08846 5.03957 0 1 1 6.13 532.44 A15.2541 15.1075
									 -180 0 0 -0 516.85 Z" class="st2"/>
					</g>
					<g id="shape8-12" v:mID="8" v:groupContext="shape" transform="translate(-343.232,904.393) rotate(-135)">
						<title>Sheet.8</title>
						<path d="M-0 516.75 A19.7683 19.7683 0 0 1 15.83 535.21 A5.06401 5.06401 0 1 1 6.1 532.41 A15.1808 15.1808
									 -180 0 0 0 516.75 Z" class="st2"/>
					</g>
				</g>
				<g id="shape9-14" v:mID="9" v:groupContext="shape" transform="translate(307.104,33.7585) rotate(30)">
					<title>Lion Rampant.84</title>
					<path d="M5.91 502.93 A32.7293 31.8102 -90 0 0 2.66 535.05 A31.3556 32.2616 -180 0 0 22.17 533.71 A11.6615 11.9984
								 0 0 1 32.25 534.38 A22.4243 23.0722 -180 0 0 49.15 538.73 A11.478 11.8096 -180 0 0 42.97 518.32
								 A189.57 195.047 -180 0 0 24.77 512.3 A43.1452 44.3918 0 0 1 5.91 502.93 Z" class="st1"/>
				</g>
				<g id="group10-16" transform="translate(96.7416,-21.6)" v:mID="10" v:groupContext="group">
					<title>Sheet.10</title>
					<g id="shape11-17" v:mID="11" v:groupContext="shape" transform="translate(-435.124,248.787) rotate(-57.4)">
						<title>Sheet.11</title>
						<path d="M16.04 506.24 A39.6531 39.6531 0 0 1 14.03 526.44 A18.6584 18.6584 174.81 0 1 0 538.65 A28.2432
									 28.2432 -4.17 0 0 32.21 515.67 A54.4239 54.4239 177.65 0 1 27.53 513.01 A22.3364 22.3364 0 0
									 1 16.91 529.32 A30.109 30.109 -180 0 0 21.31 508.65 A40.4192 40.4192 172.68 0 1 16.04 506.24
									 Z" class="st3"/>
					</g>
					<g id="shape12-19" v:mID="12" v:groupContext="shape" transform="translate(-481.546,382.674) rotate(-75)">
						<title>Sheet.12</title>
						<path d="M18.89 515.9 A44.5511 44.5511 90.04 0 1 -0 539 A38.318 38.318 -180 0 0 25.92 521.42 A135.867 135.867
									 0 0 1 18.89 515.9 Z" class="st3"/>
					</g>
					<g id="shape13-21" v:mID="13" v:groupContext="shape" transform="translate(-403.096,224.414) rotate(-57.4)">
						<title>Sheet.13</title>
						<path d="M17.14 512.25 A47.4257 47.4257 179.91 0 1 0 539 A43.3032 43.3032 -170.67 0 0 26.65 515.7 A153.774
									 153.774 167.11 0 1 17.14 512.25 Z" class="st3"/>
					</g>
					<g id="shape14-23" v:mID="14" v:groupContext="shape" transform="translate(-380.403,217.102) rotate(-57.4)">
						<title>Sheet.14</title>
						<path d="M14.42 502.41 A58.7065 58.7065 74.66 0 1 -0 539 A56.8356 56.8356 -106.42 0 0 24.24 499.37 A166.981
									 166.981 73.79 0 1 19.41 502.06 A153.204 153.204 0 0 1 14.42 502.41 Z" class="st3"/>
					</g>
					<g id="shape15-25" v:mID="15" v:groupContext="shape" transform="translate(581.05,313.566) rotate(75)">
						<title>Sheet.15</title>
						<path d="M16.04 506.24 A39.6531 39.6531 0 0 1 14.03 526.44 A18.6584 18.6584 174.81 0 1 0 538.65 A28.2432
									 28.2432 -4.17 0 0 32.21 515.67 A54.4239 54.4239 177.65 0 1 27.53 513.01 A22.3364 22.3364 0 0
									 1 16.91 529.32 A30.109 30.109 -180 0 0 21.31 508.65 A40.4192 40.4192 172.68 0 1 16.04 506.24
									 Z" class="st3"/>
					</g>
					<g id="shape16-27" v:mID="16" v:groupContext="shape" transform="translate(-384.914,719.623) rotate(-120)">
						<title>Sheet.16</title>
						<path d="M17.14 512.25 A47.4257 47.4257 179.91 0 1 0 539 A43.3032 43.3032 -170.67 0 0 26.65 515.7 A153.774
									 153.774 167.11 0 1 17.14 512.25 Z" class="st3"/>
					</g>
					<g id="shape17-29" v:mID="17" v:groupContext="shape" transform="translate(-440.861,577.814) rotate(-105)">
						<title>Sheet.17</title>
						<path d="M17.14 512.25 A47.4257 47.4257 179.91 0 1 0 539 A43.3032 43.3032 -170.67 0 0 26.65 515.7 A153.774
									 153.774 167.11 0 1 17.14 512.25 Z" class="st3"/>
					</g>
					<g id="shape18-31" v:mID="18" v:groupContext="shape" transform="translate(-435.146,293.745) rotate(-75)">
						<title>Sheet.18</title>
						<path d="M18.89 515.9 A44.5511 44.5511 90.04 0 1 -0 539 A38.318 38.318 -180 0 0 25.92 521.42 A135.867 135.867
									 0 0 1 18.89 515.9 Z" class="st3"/>
					</g>
					<g id="shape19-33" v:mID="19" v:groupContext="shape" transform="translate(-289.401,50.4315) rotate(-45)">
						<title>Sheet.19</title>
						<path d="M17.14 512.25 A47.4257 47.4257 179.91 0 1 0 539 A43.3032 43.3032 -170.67 0 0 26.65 515.7 A153.774
									 153.774 167.11 0 1 17.14 512.25 Z" class="st3"/>
					</g>
				</g>
			</g>
			<g id="group20-35" transform="translate(0,-302.545)" v:mID="20" v:groupContext="group">
				<title>Sheet.20</title>
				<g id="group21-36" v:mID="21" v:groupContext="group">
					<title>Sheet.21</title>
					<g id="shape22-37" v:mID="22" v:groupContext="shape" transform="translate(9.89386,1.13687E-013)">
						<title>Sheet.22</title>
						<path d="M49.33 465.33 A19.7987 19.2397 25 0 1 32.58 467.57 A29.9949 29.1481 -155 0 0 47.38 475.29 L52.88
									 475.93 A29.9949 29.1481 25 0 1 47.38 475.29 L36.27 473.99 A17.5417 17.0464 -155 0 0 51.1 483.04
									 L73.77 481.8 L52.7 483.04 A17.5417 17.0464 25 0 1 51.1 483.04 L46.16 483.31 A14.2044 13.8034
									 -155 0 0 59.46 488.68 L72.77 488.52 L51.56 489.14 A18.7422 18.2131 -155 0 0 66.1 497.03 L90.01
									 494.9 L69.19 496.82 A7.52136 7.30901 -155 0 0 77.48 503.17 L83.75 502.71 A354.429 344.423 25
									 0 1 93.39 502.01 L83.75 502.71 A354.429 344.423 -155 0 0 72.45 503.87 A21.0237 20.4301 -155
									 0 0 91.31 513.49 L95.35 512.99 L95.42 512.92 L114.28 510.65 L95.35 512.99 A10.6923 10.3904 -155
									 0 0 95.28 526.97 A14.966 14.5435 25 0 1 103.33 518.55 A12.5677 12.2129 -155 0 0 101.79 531.94
									 A11.3024 10.9833 25 0 1 106.94 525.76 A11.7837 11.451 -155 0 0 119.29 538.99 A10.3637 10.0711
									 25 0 1 116.49 526.06 A9.1883 8.92889 -155 0 0 133.35 525.63 A26.2038 25.464 25 0 1 152.11 511.96
									 A21.4477 20.8422 -155 0 0 152.03 474.57 A69.8885 67.9154 25 0 1 103.51 466.89 A260.077 252.734
									 -155 0 0 76.75 448.85 A50.3524 50.3524 98.71 0 1 62.99 420.03 A16.3028 16.3028 98.71 0 1 64.11
									 404.69 A12.1161 12.1161 -81.29 0 0 47.17 387.43 A8.35391 8.35391 -91.08 0 0 43.57 393.66 A11.097
									 11.097 -81.29 0 0 44.6 398.4 A10.0857 10.0857 98.71 0 1 45.38 408.37 A10.6243 10.6243 -71.69
									 0 0 44.6 398.4 A8.35391 8.35391 88.92 0 1 43.57 393.66 A11.097 11.097 98.71 0 1 43.57 393.46
									 A9.77747 9.77747 -73.5 0 0 36.48 383.33 A9.17148 9.17148 -80.83 0 0 25.83 397.86 A14.5359 14.5359
									 98.71 0 1 29.53 401.13 A10.9309 10.9309 98.71 0 1 32.82 411.23 A14.0965 14.0965 -79.58 0 0 26.78
									 398.74 A9.17148 9.17148 99.17 0 1 25.83 397.86 A14.5359 14.5359 -81.29 0 0 15.87 395.87 A9.37231
									 9.37231 -81.29 0 0 13.52 412.24 A20.727 20.727 98.71 0 1 19.21 414.46 A12.8243 12.8243 98.71
									 0 1 25.55 420.09 A20.727 20.727 -81.29 0 0 19.21 414.46 A12.8243 12.8243 -81.29 0 0 17.75 413.96
									 A9.37231 9.37231 98.71 0 1 13.52 412.24 A20.727 20.727 -81.29 0 0 8.63 411.72 A9.16616 9.16616
									 -81.29 1 0 9.85 430.01 A17.696 17.696 98.86 0 1 24.63 430.71 A9.23908 9.23908 -83.09 0 0 29.46
									 438.39 A7.58808 7.58808 98.71 0 1 37.01 446.85 A12.327 11.9789 -142.19 0 0 41.74 455.78 A8.59229
									 8.59229 -135 0 0 47.82 465.24 A32.3063 32.3063 -180 0 0 49.33 465.33 Z" class="st1"/>
					</g>
					<g id="group23-39" transform="translate(93.4322,-99.4134) rotate(10)" v:mID="23" v:groupContext="group">
						<title>Lion Rampant.31</title>
						<g id="shape24-40" v:mID="24" v:groupContext="shape" transform="translate(-195.155,9.09176) rotate(-26.6)">
							<title>Sheet.24</title>
							<path d="M0 517.93 A18.7209 18.7209 0 0 1 14.99 535.42 A4.79571 4.79571 0 1 1 5.78 532.76 A14.3765 14.3765
										 -180 0 0 -0 517.93 Z" class="st4"/>
						</g>
						<g id="shape25-42" v:mID="25" v:groupContext="shape" transform="translate(-424.627,211.73) rotate(-57.8)">
							<title>Sheet.25</title>
							<path d="M0 517.93 A18.7209 18.7209 0 0 1 14.99 535.42 A4.79571 4.79571 0 1 1 5.78 532.76 A14.3765 14.3765
										 -180 0 0 0 517.93 Z" class="st4"/>
						</g>
						<g id="shape26-44" v:mID="26" v:groupContext="shape" transform="translate(-517.167,485.659) rotate(-86.9)">
							<title>Sheet.26</title>
							<path d="M0 517.93 A18.7209 18.7209 0 0 1 14.99 535.42 A4.79571 4.79571 0 1 1 5.78 532.76 A14.3765 14.3765
										 -180 0 0 0 517.93 Z" class="st4"/>
						</g>
						<g id="shape27-46" v:mID="27" v:groupContext="shape" transform="translate(-504.687,654.625) rotate(-102.9)">
							<title>Sheet.27</title>
							<path d="M-0 517.93 A18.7209 18.7209 0 0 1 14.99 535.42 A4.79571 4.79571 0 1 1 5.78 532.76 A14.3765 14.3765
										 -180 0 0 0 517.93 Z" class="st4"/>
						</g>
					</g>
					<g id="shape28-48" v:mID="28" v:groupContext="shape" transform="translate(123.31,-78.011) rotate(10)">
						<title>Lion Rampant.80</title>
						<path d="M16.99 489.87 A20.5198 20.5198 -180 0 0 0.9 516.1 A10.3275 10.3275 -180 0 0 13.71 523.6 A12.0321
									 12.0321 0 0 1 15.74 516.1 A11.604 11.604 -180 0 0 13.55 523.91 A19.608 19.608 -180 0 0 24.17
									 538.43 A9.55686 9.55686 -180 0 0 35.42 524.22 A36.26 36.26 0 0 1 28.7 505.8 A16.5712 16.5712
									 -180 0 0 16.99 489.87 Z" class="st5"/>
					</g>
				</g>
				<g id="group29-50" transform="translate(62.325,-28.2331)" v:mID="29" v:groupContext="group">
					<title>Sheet.29</title>
					<g id="shape30-51" v:mID="30" v:groupContext="shape" transform="translate(0,-34.0085)">
						<title>Sheet.30</title>
						<path d="M19.13 505.51 A44.4521 44.4521 0 0 1 16.88 528.15 A19.454 19.454 0 0 1 0 537.71 A29.4081 29.4081
									 -0.87 0 0 36.56 518.73 A59.9426 59.9426 178.84 0 1 31.5 515.63 A22.3097 22.3097 0 0 1 20.11
									 531.38 A30.5642 30.5642 -180 0 0 24.05 510.29 A47.8443 47.8443 174.7 0 1 19.13 505.51 Z"
								class="st3"/>
					</g>
					<g id="shape31-53" v:mID="31" v:groupContext="shape" transform="translate(20.8125,-22.0781)">
						<title>Sheet.31</title>
						<path d="M21.94 511.15 A52.9178 52.9178 89.01 0 1 0 539 A45.0835 45.0835 -180 0 0 29.81 517.34 A152.311 152.311
									 0 0 1 21.94 511.15 Z" class="st3"/>
					</g>
					<g id="shape32-55" v:mID="32" v:groupContext="shape" transform="translate(41.0625,-8.57813)">
						<title>Sheet.32</title>
						<path d="M20.11 508.48 A54.5573 54.5573 0 0 1 0 539 A49.6471 49.6471 -97.99 0 0 29.25 510.87 A143.688 143.688
									 76.53 0 1 20.11 508.48 Z" class="st3"/>
					</g>
					<g id="shape33-57" v:mID="33" v:groupContext="shape" transform="translate(61.875,0)">
						<title>Sheet.33</title>
						<path d="M19.13 504.55 A58.8263 58.8263 80.9 0 1 -0 539 A57.1054 57.1054 -101.57 0 0 30.37 503.56 A171.746
									 171.746 0 0 1 19.13 504.55 Z" class="st3"/>
					</g>
				</g>
			</g>
			<g id="shape34-59" v:mID="34" v:groupContext="shape" transform="translate(92.1061,-201.459) rotate(-13.6)">
				<title>Sheet.34</title>
				<path d="M31.5 537.23 A8.18496 8.18496 0 0 1 19.12 527.11 A49.4783 49.4783 -180 0 0 0 506.86 A29.583 29.583 0 0 1
							 29.25 518.11 A9.80418 9.80418 3.23 1 1 31.5 537.23 Z" class="st4"/>
			</g>
			<g id="group35-61" transform="translate(276.356,-173.419)" v:mID="35" v:groupContext="group">
				<title>Sheet.35</title>
				<g id="shape36-62" v:mID="36" v:groupContext="shape" transform="translate(59.8445,-3.63746) rotate(7)">
					<title>Sheet.36</title>
					<path d="M57.93 385 A43.3004 43.3004 0.8 0 1 77.08 348.19 A12.1953 12.1953 -180 0 0 79.67 326.86 A14.0762 14.0762
								 0 0 1 69.32 344.96 A39.4635 39.4635 -180 0 0 47.67 376.64 A69.0709 69.0709 179.95 0 1 75.47 321.05
								 A125.184 125.184 -0.11 0 0 108.76 282.91 A14.6005 14.6005 0 0 1 130.41 288.72 A13.0189 13.0189 -180
								 0 0 111.34 272.56 A43.6445 43.6445 -180 0 0 91.63 231.19 A36.4403 36.4403 -178.93 0 0 33.13 246.06
								 L32.16 269.98 A8.52185 8.52185 0.6 1 1 16 268.04 A14.3735 14.3735 -179.71 0 0 24.4 293.9 A18.6249
								 18.6249 -4.45 0 0 45.08 280.97 A61.881 61.881 -1.22 0 0 45.08 257.05 A20.9184 20.9184 0 0 1 71.91
								 235.72 A32.6973 32.6973 0 0 1 90.66 288.72 A469.335 469.335 0 0 1 49.29 329.45 A46.5076 46.5076
								 -180 0 0 49.61 397.32 A163.168 163.168 0 0 1 82.9 505.28 A24.3116 24.3116 0 0 1 48.64 524.02 A101.663
								 101.663 8.98 0 1 9 469.68 L0 491.05 A227.728 227.728 -177.38 0 0 41.85 533.39 A34.5083 34.5083 -0.91
								 0 0 95.18 505.92 A144.112 144.112 -0.78 0 0 85.81 439.99 A19.4185 19.4185 0 0 1 103.59 410.25 A15.3042
								 15.3042 -178.45 0 0 77.08 416.72 A53.5064 53.5064 0.76 0 1 93.24 381.81 A6.62999 6.62999 178.52
								 0 1 104.55 379.22 A10.2867 10.2867 -0.42 0 0 84.84 375.34 A809.166 809.166 -179.48 0 0 67.39 398.62
								 A29.4126 29.4126 0.54 0 1 82.9 367.59 A17.3811 17.3811 -179.23 0 0 90.01 341.73 A20.0885 20.0885
								 0 0 1 77.08 359.83 A25.9607 25.9607 -179.07 0 0 57.93 385 A43.3004 43.3004 -179.2 0 0 58.01 386.98
								 A25.9607 25.9607 0.93 0 1 57.93 385 Z" class="st1"/>
				</g>
				<g id="group37-64" transform="translate(43.6471,-0.248268)" v:mID="37" v:groupContext="group">
					<title>Sheet.37</title>
					<g id="shape38-65" v:mID="38" v:groupContext="shape">
						<title>Sheet.38</title>
						<path d="M13.75 526.35 A24.3116 24.3116 7.22 0 1 4.73 524.92 A18.9703 18.9703 0 0 1 -0 536.1 A34.5083 34.5083
									 -173.82 0 0 9.86 539 A18.9703 18.9703 -180 0 0 13.75 526.35 Z" class="st6"/>
					</g>
					<g id="shape39-67" v:mID="39" v:groupContext="shape" transform="translate(26.652,-4.44753)">
						<title>Sheet.39</title>
						<path d="M6.17 520.55 A24.3116 24.3116 7.22 0 1 -0 526.61 A18.9703 18.9703 0 0 1 5.4 539 A34.5083 34.5083
									 -173.82 0 0 14.02 531.8 A18.9703 18.9703 -180 0 0 6.17 520.55 Z" class="st6"/>
					</g>
					<g id="shape40-69" v:mID="40" v:groupContext="shape" transform="translate(37.86,-35.0617)">
						<title>Sheet.40</title>
						<path d="M0.82 525.24 A163.168 163.168 7.25 0 1 -0 534.11 A18.9703 18.9703 0 0 1 11.99 539 A144.112 144.112
									 -173.71 0 0 13.42 528.08 A18.9703 18.9703 -180 0 0 0.82 525.24 Z" class="st6"/>
					</g>
					<g id="shape41-71" v:mID="41" v:groupContext="shape" transform="translate(37.7095,-69.4995)">
						<title>Sheet.41</title>
						<path d="M0 528.52 A163.168 163.168 7.25 0 1 0.89 537.5 A18.9703 18.9703 0 0 1 13.81 539 A144.112 144.112
									 -173.71 0 0 12.62 528.19 A18.9703 18.9703 -180 0 0 0 528.52 Z" class="st6"/>
					</g>
					<g id="shape42-73" v:mID="42" v:groupContext="shape" transform="translate(30.0565,-104.453)">
						<title>Sheet.42</title>
						<path d="M0 530.76 A163.168 163.168 7.25 0 1 2.61 539 A24.0243 18.9703 179.1 0 1 15.45 538.78 A19.4185 19.4185
									 7.08 0 1 18.87 528.96 A24.0243 18.9703 -0.9 0 0 0 530.76 Z" class="st6"/>
					</g>
					<g id="shape43-75" v:mID="43" v:groupContext="shape" transform="translate(16.9253,-279.304)">
						<title>Sheet.43</title>
						<path d="M2.19 523.39 A36.4403 36.4403 -171.98 0 0 1.74 524.25 L0 534.87 A18.9703 18.9703 -180 0 0 12.4 538.99
									 A61.881 61.881 -174.06 0 0 12.27 536.61 A20.9184 20.9184 7.22 0 1 13.6 530.46 A18.9703 18.9703
									 0 0 1 2.19 523.39 Z" class="st6"/>
					</g>
					<g id="shape44-77" v:mID="44" v:groupContext="shape" transform="translate(40.5884,-299.881)">
						<title>Sheet.44</title>
						<path d="M10.41 524.83 A36.4403 36.4403 -171.98 0 0 0.57 526.24 A18.9703 18.9703 -100.34 0 0 1.84 539 A20.9184
									 20.9184 7.22 0 1 11.48 537.65 A18.9703 18.9703 79.66 0 1 10.41 524.83 Z" class="st6"/>
					</g>
					<g id="shape45-79" v:mID="45" v:groupContext="shape" transform="translate(66.9264,-289.205)">
						<title>Sheet.45</title>
						<path d="M15.59 530.28 A43.6445 43.6445 -172.78 0 0 11.62 526.52 A36.4403 36.4403 -171.98 0 0 8.24 523.16
									 A18.9703 18.9703 -45 0 0 0 532.87 A32.6973 32.6973 7.22 0 1 6.6 539 A18.9703 18.9703 135 0 1
									 15.59 530.28 Z" class="st6"/>
					</g>
					<g id="shape46-81" v:mID="46" v:groupContext="shape" transform="translate(80.4596,-263.235)">
						<title>Sheet.46</title>
						<path d="M13.66 537.02 A43.6445 43.6445 -172.78 0 0 13.26 527.43 A18.9703 18.9703 -100.34 0 0 0.04 528.64
									 A32.6973 32.6973 7.22 0 1 -0 539 A18.9703 18.9703 79.66 0 1 13.66 537.02 Z" class="st6"/>
					</g>
					<g id="shape47-83" v:mID="47" v:groupContext="shape" transform="translate(60.6584,-226.795)">
						<title>Sheet.47</title>
						<path d="M8.42 539 A125.184 125.184 -173.05 0 0 15.9 532.18 A18.9703 18.9703 -180 0 0 7.3 523.36 A469.335
									 469.335 7.22 0 1 0 529.51 A18.9703 18.9703 0 0 1 8.42 539 Z" class="st6"/>
					</g>
					<g id="shape48-85" v:mID="48" v:groupContext="shape" transform="translate(34.7743,-207.083)">
						<title>Sheet.48</title>
						<path d="M6.25 539 A69.0709 69.0709 7.01 0 1 14.16 533.18 A18.9703 18.9703 -180 0 0 7.94 523.87 A469.335
									 469.335 7.22 0 1 0 529.67 A18.9703 18.9703 0 0 1 6.25 539 Z" class="st6"/>
					</g>
					<g id="shape49-87" v:mID="49" v:groupContext="shape" transform="translate(12.508,-137.778)">
						<title>Sheet.49</title>
						<path d="M13.9 523.17 A30.2169 18.9703 -18.06 0 0 -0 529.21 A46.5076 46.5076 -172.78 0 0 4.09 534.87 A163.168
									 163.168 7.25 0 1 6.43 539 A24.787 18.9703 149.6 0 1 21.95 532.14 A29.4126 29.4126 7.46 0 1 25.79
									 521.78 A30.2169 18.9703 -18.06 0 0 13.91 523.17 A25.9607 25.9607 -172.24 0 0 13.85 523.65 A43.3004
									 43.3004 -172.02 0 0 13.69 525.63 A25.9607 25.9607 8.11 0 1 13.85 523.65 A43.3004 43.3004 7.96
									 0 1 13.9 523.17 Z" class="st6"/>
					</g>
					<g id="shape50-89" v:mID="50" v:groupContext="shape" transform="translate(11.4084,-189.128)">
						<title>Sheet.50</title>
						<path d="M14.62 539 A69.0709 69.0709 7.01 0 1 19.8 531.31 A18.9703 18.9703 -180 0 0 6.49 524.78 A46.5076
									 46.5076 -172.78 0 0 0 533.81 A18.9703 18.9703 0 0 1 14.62 539 Z" class="st6"/>
					</g>
				</g>
			</g>
			<g id="shape51-91" v:mID="51" v:groupContext="shape" transform="translate(22.8991,-6.18077)">
				<title>Sheet.51</title>
				<path d="M282.52 433.63 A223.398 223.398 -87.28 0 0 282.35 433.15 A223.398 223.398 92.72 0 1 282.52 433.63 ZM282.52
							 433.63 A223.398 223.398 92.72 0 1 293.67 483.95 A15.2945 15.2945 101.74 0 1 285.24 498.04 A16.394 16.394
							 83.08 0 1 273.43 499.17 A13.8876 13.8876 -94.69 0 0 252.41 499.67 A9.44657 9.44657 -90.66 0 0 256.71
							 515.24 A12.1206 12.1206 -82.75 0 0 271.27 509.31 A12.0888 12.0888 129.76 0 1 273.99 511.54 A3.65235
							 3.65235 80.78 0 1 269.91 515.97 A9.28717 9.28717 -89.6 0 0 263.82 531.02 A13.5218 13.5218 -122.83 0
							 0 287.36 520.13 A10.6187 10.6187 91.68 0 1 289.18 515.48 A2.67205 2.67205 104.7 1 1 293.68 518.29 A12.4012
							 12.4012 -99.45 0 0 304.25 538.92 A11.5584 11.5584 -91.05 0 0 309.99 517.73 A2.47264 2.47264 85.63 0
							 1 314.49 516.04 A11.213 11.213 80.49 0 1 320.35 522.11 A12.7547 12.7547 -88.91 0 0 342.92 533.15 A14.8192
							 14.8192 -88.07 0 0 333.68 513.83 A10.0436 10.0436 91.52 0 1 330.85 507.59 A19.6532 19.6532 91.16 0 1
							 344.11 518.83 A29.7746 29.7746 -88.84 0 0 340.39 502.68 L337.27 498.13 A29.7746 29.7746 91.16 0 1 340.39
							 502.68 L346.69 511.86 A17.4128 17.4128 -88.84 0 0 343.98 494.82 L328.1 478.62 L342.93 493.63 A17.4128
							 17.4128 91.16 0 1 343.98 494.82 L347.44 498.35 A14.1 14.1 -88.96 0 0 342.87 484.86 L333.99 474.97 L348.43
							 490.49 A18.6045 18.6045 -89.48 0 0 345.01 474.43 L327.62 457.87 L342.81 472.25 A7.46611 7.46611 -88.96
							 0 0 342.31 461.88 L337.83 457.47 A351.826 351.826 90.52 0 1 330.94 450.69 L337.83 457.47 A351.826 351.826
							 -89.09 0 0 346.16 465.2 A20.8692 20.8692 -89.8 0 0 341.25 444.76 L338.2 442.05 L338.1 442.05 L323.92
							 429.38 L338.2 442.05 A10.6138 10.6138 -89.5 0 0 349.13 432.98 A14.8561 14.8561 90.16 0 1 337.28 432.44
							 A12.4754 12.4754 -93.58 0 0 348.72 424.85 A11.2194 11.2194 86.08 0 1 340.52 425.01 A11.6972 11.6972
							 -93.59 0 0 342.71 407.12 A10.2876 10.2876 90.07 0 1 334.48 417.66 A9.1208 9.1208 -89.09 0 0 330.6 405.87
							 L330.52 406.06 A51.5922 51.5922 91.52 0 1 306.37 394.1 A31.3104 31.3104 -88.48 0 0 285.96 384.35 A171.576
							 171.576 -86.8 0 0 268.64 279.93 L243.24 246.72 A59.3648 59.3648 87.66 0 1 227.78 207.52 A112.982 112.982
							 -69.79 0 0 209.3 103.52 A112.982 112.982 -24.17 0 0 203.46 96.62 A42.1022 42.1022 28.08 0 1 155.3 123.98
							 A53.8347 53.8347 16.19 0 1 137.96 170.34 A40.5023 40.5023 -12.85 0 0 127.29 219.56 A76.1696 76.1696
							 153.78 0 1 104.1 239.77 A283.451 283.451 -25.8 0 0 62.53 259.56 A1337.19 1337.19 -166.61 0 0 49.05 253.01
							 A20.9289 20.9289 -180 0 0 36.07 243.1 A9.96597 9.96597 -180 1 0 28.71 261.49 A8.76348 8.76348 -16.83
							 0 0 39.33 257.14 A11.3157 11.3157 3.23 0 1 46.49 263.86 L28.7 265.55 A29.1342 29.1342 -180 0 0 5.93
							 261.77 A9.92902 9.92902 -180 0 0 12.3 280.5 A40.4056 40.4056 0 0 1 36.4 280.69 A21.5072 21.5072 0 0
							 1 19 287.53 A7.01999 7.01999 -180 0 0 14.53 300.63 A10.9846 10.9846 -180 0 0 34.89 297.23 A16.8834 16.8834
							 0 0 1 47.54 290.85 A13.9018 13.9018 175.08 0 1 43.51 300.28 A4.45445 4.45445 -6.06 0 0 44.35 307.56
							 A11.8035 11.8035 -180 0 0 63.53 295.09 A9.69578 9.69578 0 0 1 58.47 286.97 A8.44028 8.44028 -180 0 0
							 71.34 284.49 A21.578 21.578 0 0 1 64.99 306.95 A32.6906 32.6906 -180 0 0 80.59 297.58 L84.28 292.78
							 A32.6906 32.6906 0 0 1 80.59 297.58 L73.14 307.27 A19.1182 19.1182 -180 0 0 90.01 298.67 L101.54 276.58
							 L90.9 297.16 A19.1182 19.1182 0 0 1 90.01 298.67 L87.5 303.47 A15.481 15.481 -180 0 0 100.03 294.13
							 L107.35 281.51 L96.04 301.85 A20.4266 20.4266 -10.16 0 0 111.66 292.83 L123.05 269.05 L113.18 289.79
							 A8.19732 8.19732 -180 0 0 123.84 285.75 L126.92 279.57 A386.283 386.283 178.39 0 1 131.66 270.08 L126.92
							 279.57 A386.283 386.283 -1.61 0 0 121.69 290.89 A22.9131 22.9131 -4.92 0 0 141.36 278.83 L143.15 274.73
							 L143.12 274.62 L149.21 260.8 L143.15 274.73 A11.6532 11.6532 -11.22 0 0 156.33 283.07 A16.311 16.311
							 168.78 0 1 152.88 270.5 A13.6972 13.6972 -11.65 0 0 164.68 279.88 A12.3182 12.3182 172.59 0 1 161.73
							 271.37 A12.8428 12.8428 -7.41 0 0 167.07 273.98 L180.21 283.12 A15.1938 15.1938 -7.58 0 0 180.43 283.24
							 L180.35 283.13 L180.43 283.24 A34.1397 34.1397 -3.41 0 0 209.3 297.3 A34.1397 34.1397 -88.4 0 0 213.14
							 296.94 A13.7643 13.7643 92.19 0 1 219.6 317.46 A126.372 126.372 -90.2 0 0 224.09 391.15 A16.1902 16.1902
							 -80.33 0 0 233.83 411.08 A199.017 199.017 -87.64 0 0 275.85 429.55 A23.6955 23.6955 -87.24 0 0 282.52
							 433.63 Z" class="st1"/>
			</g>
			<g id="group52-93" transform="translate(299.851,-4.42105) rotate(4.4)" v:mID="52" v:groupContext="group">
				<title>Sheet.52</title>
				<g id="shape53-94" v:mID="53" v:groupContext="shape" transform="translate(-502.303,372.007) rotate(-75)">
					<title>Sheet.53</title>
					<path d="M0 520.02 A16.8582 16.8582 0 0 1 13.5 535.77 A4.31855 4.31855 0 1 1 5.2 533.38 A12.9461 12.9461 -180
								 0 0 0 520.02 Z" class="st4"/>
				</g>
				<g id="shape54-96" v:mID="54" v:groupContext="shape" transform="translate(-484.753,393.157) rotate(-75)">
					<title>Sheet.54</title>
					<path d="M0 520.02 A16.8582 16.8582 0 0 1 13.5 535.77 A4.31855 4.31855 0 1 1 5.2 533.38 A12.9461 12.9461 -180
								 0 0 0 520.02 Z" class="st4"/>
				</g>
				<g id="shape55-98" v:mID="55" v:groupContext="shape" transform="translate(-449.17,672.69) rotate(-105)">
					<title>Sheet.55</title>
					<path d="M0 520.02 A16.8582 16.8582 0 0 1 13.5 535.77 A4.31855 4.31855 0 1 1 5.2 533.38 A12.9461 12.9461 -180
								 0 0 0 520.02 Z" class="st4"/>
				</g>
				<g id="shape56-100" v:mID="56" v:groupContext="shape" transform="translate(-423.97,673.59) rotate(-105)">
					<title>Sheet.56</title>
					<path d="M-0 520.02 A16.8582 16.8582 0 0 1 13.5 535.77 A4.31855 4.31855 0 1 1 5.2 533.38 A12.9461 12.9461 -180
								 0 0 0 520.02 Z" class="st4"/>
				</g>
			</g>
			<g id="shape57-102" v:mID="57" v:groupContext="shape" transform="translate(149.822,-265.609)">
				<title>Sheet.57</title>
				<path d="M0 539 L4.74 529.51 A386.283 386.283 -16.24 0 0 -0 539 Z" class="st7"/>
			</g>
			<g id="shape58-104" v:mID="58" v:groupContext="shape" transform="translate(112.91,-246.513)">
				<title>Sheet.58</title>
				<path d="M0 539 A19.1182 19.1182 -180 0 0 0.89 537.49 L11.53 516.92 L0 539 Z" class="st7"/>
			</g>
			<g id="shape59-106" v:mID="59" v:groupContext="shape" transform="translate(103.488,-247.596)">
				<title>Sheet.59</title>
				<path d="M-0 539 A32.6906 32.6906 -180 0 0 3.69 534.2 L0 539 Z" class="st7"/>
			</g>
			<g id="group60-108" transform="translate(-250.117,-116.151) rotate(-33.6)" v:mID="60" v:groupContext="group">
				<title>Sheet.60</title>
				<g id="shape61-109" v:mID="61" v:groupContext="shape" transform="translate(-142.233,-35.0666) rotate(-20)">
					<title>Sheet.61</title>
					<path d="M0 520.02 A16.8582 16.8582 0 0 1 13.5 535.77 A4.31855 4.31855 0 1 1 5.2 533.38 A12.9461 12.9461 -180
								 0 0 0 520.02 Z" class="st4"/>
				</g>
				<g id="shape62-111" v:mID="62" v:groupContext="shape" transform="translate(-394.61,132.885) rotate(-50)">
					<title>Sheet.62</title>
					<path d="M0 520.02 A16.8582 16.8582 0 0 1 13.5 535.77 A4.31855 4.31855 0 1 1 5.2 533.38 A12.9461 12.9461 -180
								 0 0 0 520.02 Z" class="st4"/>
				</g>
				<g id="shape63-113" v:mID="63" v:groupContext="shape" transform="translate(-471.3,282.663) rotate(-65)">
					<title>Sheet.63</title>
					<path d="M0 520.02 A16.8582 16.8582 0 0 1 13.5 535.77 A4.31855 4.31855 0 1 1 5.2 533.38 A12.9461 12.9461 -180
								 0 0 0 520.02 Z" class="st4"/>
				</g>
				<g id="shape64-115" v:mID="64" v:groupContext="shape" transform="translate(-454.123,725.358) rotate(-111)">
					<title>Sheet.64</title>
					<path d="M0 520.02 A16.8582 16.8582 0 0 1 13.5 535.77 A4.31855 4.31855 0 1 1 5.2 533.38 A12.9461 12.9461 -180
								 0 0 0 520.02 Z" class="st4"/>
				</g>
			</g>
			<g id="group65-117" transform="translate(90.9,-378.036)" v:mID="65" v:groupContext="group">
				<title>Sheet.65</title>
				<g id="shape66-118" v:mID="66" v:groupContext="shape" transform="translate(7.99361E-015,-42.2643)">
					<title>Lion Rampant.95</title>
					<path d="M89.67 520.37 A53.6045 57.422 -180 0 0 49.16 523.81 A33.1433 30.9399 90 0 1 28.16 531.48 A10.5929 9.88865
								 90 0 1 21.24 519.58 A12.524 13.4159 -180 0 0 0 510.32 A12.4555 13.3426 0 0 1 9.88 522.22 A15.9788
								 17.1168 -180 0 0 21.49 538.63 A35.7908 38.3396 -180 0 0 49.9 529.63 A57.5435 61.6415 0 0 1 84.97
								 530.69 A5.76275 6.17315 -180 1 0 89.67 520.37 Z" class="st4"/>
				</g>
				<g id="group67-120" transform="translate(7.2,-44.4723)" v:mID="67" v:groupContext="group">
					<title>Sheet.67</title>
					<g id="group68-121" transform="translate(39.1665,-3.76026)" v:mID="68" v:groupContext="group">
						<title>Sheet.68</title>
						<g id="shape69-122" v:mID="69" v:groupContext="shape" transform="translate(23.0434,1057.63) scale(1,-1)">
							<title>Sheet.69</title>
							<path d="M2.11 519.62 A12.3958 13.2785 -180 0 0 7.04 539 A18.7528 20.0882 0 0 1 10.33 521.38 A6.14158
										 6.57895 -180 0 0 2.11 519.62 Z" class="st8"/>
						</g>
						<g id="shape70-124" v:mID="70" v:groupContext="shape" transform="translate(-261.969,67.7067) rotate(-30)">
							<title>Sheet.70</title>
							<path d="M2.48 519.81 A14.621 13.1436 -180 0 0 8.3 539 A22.1192 19.8841 0 0 1 12.18 521.56 A7.2441 6.5121
										 -180 0 0 2.48 519.81 Z" class="st8"/>
						</g>
					</g>
				</g>
				<g id="shape71-126" v:mID="71" v:groupContext="shape" transform="translate(-176.14,-25.4089) rotate(-30)">
					<title>Sheet.71</title>
					<path d="M27.12 539 A17.7634 17.7634 0 0 1 24.42 538.14 A29.266 29.266 -82.16 0 0 50.81 530.95 A59.0956 59.0956
								 119.17 0 1 41.36 526.84 A14.1642 14.1642 -179.13 0 0 46.7 510.42 A10.567 10.567 10.16 0 1 36.02
								 519.04 A17.3839 17.3839 -8.18 0 0 32.43 497.69 A22.2458 22.2458 0 0 1 10.36 519.66 A8.20714 8.20714
								 -180 0 0 9.74 519.57 A72.0902 72.0902 0 0 1 10.25 519.66 A8.18445 8.18445 -180 0 0 3.27 521.71 A8.20714
								 8.20714 -180 0 0 0.7 528.69 A8.18445 8.18445 0 0 1 3.27 521.71 A8.20714 8.20714 0 0 1 9.74 519.57
								 A72.0902 72.0902 -180 0 0 8.96 519.44 L8.92 519.45 A7.8955 7.8955 -180 0 0 0.7 530.54 A66.2333 66.2333
								 -180 0 0 27.12 539 Z" class="st1"/>
				</g>
				<g id="shape72-128" v:mID="72" v:groupContext="shape" transform="translate(36.675,0)">
					<title>Panther Rampant.186</title>
					<path d="M0 449.53 L26.56 431.98 A4.25922 4.25922 -180 0 0 31.07 437.19 A4.13823 4.13823 89.21 0 1 26.53 431.98
								 A9.45655 9.45655 0 0 1 34.03 422.73 A83.267 83.267 0 0 1 76.25 419.41 A9.45337 9.45337 -180 0 0
								 65.22 429.84 A9.47958 9.47958 0 0 1 76.37 419.41 A25.6948 25.6948 -180 0 0 101.87 394.03 A20.0791
								 20.0791 0 0 1 106.02 418.69 A12.2053 12.2053 -154.08 0 0 118.35 408.73 A16.3603 16.3603 0 0 1 112.18
								 427.71 A68.2578 68.2578 -71 0 0 123.09 432.45 A33.8034 33.8034 96.44 0 1 92.62 440.75 A20.5175 20.5175
								 -180 0 0 108.15 440.75 A43.2274 43.2274 74.14 0 1 145.12 469.96 A62.2701 62.2701 -106.35 0 0 111.95
								 456.17 A40.0128 40.0128 81.49 0 1 122.62 516.65 A15.7457 15.7457 -124.72 0 0 127.12 538.02 A17.4967
								 17.4967 0 0 1 106.02 513.09 A16.9278 16.9278 -180 0 0 105.07 496.01 A11.1305 11.1305 0 0 1 94.4
								 507.4 A10.1345 10.1345 -25.9 0 0 92.26 526.37 A15.0694 15.0694 144.74 0 1 81.11 503.13 A8.57627
								 8.57627 -180 0 0 73.05 514.04 A9.04965 9.04965 0 0 1 61.67 522.1 A8.0691 8.0691 -180 0 0 64.28 511.19
								 A14.4587 14.4587 144.74 0 1 60.52 499.71 A7.90675 7.90675 -180 0 0 55.1 510.05 A8.47265 8.47265
								 0 0 1 40.24 517.16 A5.29321 5.29321 -180 0 0 45.73 508.11 A6.69347 6.69347 0 0 1 47.26 499.06 L23.27
								 498.74 A6.65664 6.65664 144.74 0 1 14.54 488.72 A19.8658 19.8658 0 0 1 31.99 486.78 A33.5534 33.5534
								 -180 0 0 49.85 486.3 A11.5992 11.5992 -69.84 0 0 44.35 463.76 A443.09 443.09 -180 0 0 26.56 468.03
								 A14.6343 14.6343 0 0 1 8.06 471.35 A10.0954 10.0954 154.21 0 1 5.46 458.07 L0 449.53 Z"
							class="st1"/>
				</g>
				<g id="shape73-130" v:mID="73" v:groupContext="shape" transform="translate(630.325,574.223) rotate(101.818)">
					<title>Sheet.73</title>
					<path d="M0 539 A18.2833 15.9113 0 0 1 30.38 539" class="st9"/>
				</g>
				<g id="group74-133" transform="translate(582.321,161.909) rotate(60)" v:mID="74" v:groupContext="group">
					<title>Sheet.74</title>
					<g id="shape75-134" v:mID="75" v:groupContext="shape" transform="translate(-376.003,161.723) rotate(-45)">
						<title>Lion Couchant.93</title>
						<path d="M-0 530.34 A23.676 21.5019 79.65 0 1 19.05 519.02 A23.6814 25.3679 0 0 1 19.62 529.74 A4.06623 4.3558
									 0 0 1 14.71 531.55 A4.13031 4.42445 0 1 1 8.68 531.55 A14.9442 16.0084 -180 0 0 -0 530.34 Z"
								class="st10"/>
					</g>
				</g>
				<g id="shape76-136" v:mID="76" v:groupContext="shape" transform="translate(39.4088,-77.7784)">
					<title>Sheet.76</title>
					<path d="M0.17 527.5 A6.73303 6.73303 171.38 0 1 12.26 527.5 A11.5555 11.5555 -156.01 0 0 17.96 527.5 A8.77205
								 8.77205 17.63 0 1 12.26 527.5 A27.0911 27.0911 -31.48 0 0 9.89 532.71 A3.80885 3.80885 -20.73 1
								 0 5.86 539 A10.8127 10.8127 178.7 0 1 0.17 527.5 Z" class="st2"/>
				</g>
				<g id="group77-138" transform="translate(74.604,-86.6229)" v:mID="77" v:groupContext="group">
					<title>Sheet.77</title>
					<g id="shape78-139" v:mID="78" v:groupContext="shape">
						<title>Sheet.78</title>
						<path d="M2.8 516.65 A4.64729 4.64729 -180 0 0 5.77 525.43 A15.915 15.915 0 0 1 21.78 528.75 A6.63455 6.63455
									 -180 0 0 31.74 528.51 A6.09956 6.09956 0 0 1 21.89 528.75 A6.19781 6.19781 0 0 1 20.47 537.29
									 A9.7316 9.7316 0 0 1 6.51 534.09 A4.05517 4.05517 -180 0 0 2.33 537.76 A4.1211 4.1211 0 0 1
									 6.48 534.03 A12.9682 12.9682 0 0 1 5.71 525.43 A4.64408 4.64408 0 0 1 2.8 516.65 Z"
								class="st7"/>
					</g>
					<g id="shape79-141" v:mID="79" v:groupContext="shape" transform="translate(9.24125,-3.40749)">
						<title>Sheet.79</title>
						<path d="M0.57 528.63 A8.6349 7.90206 -180 0 0 6.1 539 A11.2389 10.285 -180 0 1 5.68 528.88 A6.01819 5.50743
									 -0 0 0 0.57 528.63 Z" class="st11"/>
					</g>
				</g>
				<g id="shape80-143" v:mID="80" v:groupContext="shape" transform="translate(77.0366,-50.7581)">
					<title>Sheet.80</title>
					<path d="M0.14 502.44 A31.6807 31.6807 -180 0 0 18.14 512.28 A18.947 18.947 96.61 0 1 25.45 539 A19.1369 19.1369
								 -84.05 0 0 19.26 507.22 A25.3286 25.3286 0 0 1 2.95 497.94 A3.56966 3.56966 -180 0 0 0.14 502.44
								 Z" class="st3"/>
				</g>
				<g id="shape81-145" v:mID="81" v:groupContext="shape" transform="translate(96.3,-65.9456)">
					<title>Sheet.81</title>
					<path d="M0 515.94 A11.7349 11.7349 -180 0 0 11.25 518.47 A15.4146 15.4146 0 0 1 23.62 539 A14.7179 14.7179 -180
								 0 0 10.12 514.25 A8.19978 8.19978 0 0 1 2.25 510.31 A11.0076 11.0076 0 0 1 0 515.94 Z" class="st3"/>
				</g>
				<g id="shape82-147" v:mID="82" v:groupContext="shape" transform="translate(110.925,-48.7893)">
					<title>Sheet.82</title>
					<path d="M29.81 491.75 A154.504 154.504 0 0 1 0 539 A97.6162 97.6162 -180 0 0 39.09 489.92 L29.81 491.75 Z"
							class="st3"/>
				</g>
				<g id="shape83-149" v:mID="83" v:groupContext="shape" transform="translate(72.3937,-105.742)">
					<title>Sheet.83</title>
					<path d="M-0 528.03 A5.09247 5.09247 92.24 0 1 4.36 536.47 A15.0946 15.0946 73.55 0 1 18.7 539 A12.3371 12.3371
								 -99.29 0 0 11.53 533.23 A21.1744 21.1744 -85.67 0 0 7.31 526.06 L0 528.03 Z" class="st3"/>
				</g>
				<g id="shape84-151" v:mID="84" v:groupContext="shape" transform="translate(88.1437,-100.961)">
					<title>Sheet.84</title>
					<path d="M-0 519.94 A6.82982 6.82982 94.71 0 1 3.73 528.38 A18.4356 18.4356 99.02 0 1 18 539 A10.5269 10.5269
								 -79.43 0 0 9.91 525.57 A15.9499 15.9499 -178.38 0 0 9.56 519.31 L0 519.94 Z" class="st3"/>
				</g>
				<g id="shape85-153" v:mID="85" v:groupContext="shape" transform="translate(112.05,-46.5446)">
					<title>Sheet.85</title>
					<path d="M45 509.19 A68.0298 68.0298 84.18 0 1 -0 538.72 A59.3588 59.3588 -103.87 0 0 51.33 517.63 L45 509.19
								 Z" class="st3"/>
				</g>
				<g id="shape86-155" v:mID="86" v:groupContext="shape" transform="translate(45.9562,-73.2581)">
					<title>Sheet.86</title>
					<path d="M5.91 523.53 A20.807 20.807 0 0 1 18.84 539 A19.7777 19.7777 -180 0 0 10.97 517.34 A15.4653 15.4653
								 -89.27 0 0 0 517.2 A21.6104 21.6104 96.39 0 1 5.91 523.53 Z" class="st3"/>
				</g>
				<g id="shape87-157" v:mID="87" v:groupContext="shape" transform="translate(55.8,-85.0706)">
					<title>Sheet.87</title>
					<path d="M0 522.69 A15.9415 15.9415 0 0 1 14.62 539 A18.6313 18.6313 -180 0 0 12.94 521.84 A3.51615 3.51615 0
								 0 1 7.88 517.06 L0 522.69 Z" class="st3"/>
				</g>
			</g>
			<g id="group88-159" transform="translate(85.2741,-59.2312)" v:mID="88" v:groupContext="group">
				<title>Sheet.88</title>
				<g id="shape89-160" v:mID="89" v:groupContext="shape" transform="translate(167.176,-161.437)">
					<title>Sheet.89</title>
					<path d="M37.83 492.4 A50.0697 50.0697 160.01 0 1 -0 531.07 A42.8401 42.8401 -178.26 0 0 52.87 528.54 L49.5 518.98
								 A36.1694 36.1694 0 0 1 18.56 530.51 A68.4004 68.4004 -172.91 0 0 45.84 509.84 A68.581 68.581 -12.45
								 0 0 37.83 492.4 Z" class="st3"/>
				</g>
				<g id="shape90-162" v:mID="90" v:groupContext="shape" transform="translate(166.051,-134.719)">
					<title>Sheet.90</title>
					<path d="M57.37 521.48 A81.3711 81.3711 0 0 1 0 527.11 A101.511 101.511 -180 0 0 59.06 538.36 L57.37 521.48 Z"
							class="st3"/>
				</g>
				<g id="shape91-164" v:mID="91" v:groupContext="shape" transform="translate(167.176,-106.875)">
					<title>Sheet.91</title>
					<path d="M58.5 520.92 A82.9994 82.9994 0 0 1 0 526.89 A98.832 98.832 -179.35 0 0 57.38 538.49 L58.5 520.92 Z"
							class="st3"/>
				</g>
				<g id="shape92-166" v:mID="92" v:groupContext="shape" transform="translate(162.676,-66.6563)">
					<title>Sheet.92</title>
					<path d="M-0 521.14 A87.2666 87.2666 -180 0 0 43.03 506.65 A63.4263 63.4263 0 0 1 26.16 539 A51.231 51.231 -180
								 0 0 17.16 535.34 A45.7361 45.7361 -180 0 0 31.78 519.31 A69.5838 69.5838 0 0 1 7.31 529.3 A14.4544
								 14.4544 0 0 1 -0 521.14 Z" class="st3"/>
				</g>
				<g id="shape93-168" v:mID="93" v:groupContext="shape" transform="translate(215.551,-65.5313)">
					<title>Sheet.93</title>
					<path d="M9.56 503 A38.7332 38.7332 0 0 1 0 539 A27.0835 27.0835 -180 0 0 23.06 508.62 L9.56 503 Z" class="st3"/>
				</g>
				<g id="shape94-170" v:mID="94" v:groupContext="shape" transform="translate(238.613,-51.4688)">
					<title>Sheet.94</title>
					<path d="M9.56 503 A38.7332 38.7332 0 0 1 0 539 A27.0835 27.0835 -180 0 0 23.06 508.62 L9.56 503 Z" class="st3"/>
				</g>
				<g id="shape95-172" v:mID="95" v:groupContext="shape"
						transform="translate(-271.603,409.657) rotate(-81) scale(-1,1)">
					<title>Sheet.95</title>
					<path d="M9.56 503 A38.7332 38.7332 0 0 1 0 539 A27.0835 27.0835 -180 0 0 23.06 508.62 L9.56 503 Z" class="st3"/>
				</g>
				<g id="shape96-174" v:mID="96" v:groupContext="shape"
						transform="translate(-254.333,383.01) rotate(-75) scale(-1,1)">
					<title>Sheet.96</title>
					<path d="M9.56 503 A38.7332 38.7332 0 0 1 0 539 A27.0835 27.0835 -180 0 0 23.06 508.62 L9.56 503 Z" class="st3"/>
				</g>
				<g id="group97-176" transform="translate(-1.59872E-014,-191.672)" v:mID="97" v:groupContext="group">
					<title>Sheet.97</title>
					<g id="shape98-177" v:mID="98" v:groupContext="shape" transform="translate(-432.83,248.81) rotate(-57.4)">
						<title>Sheet.98</title>
						<path d="M17.98 502.28 A44.4521 44.4521 0 0 1 15.73 524.92 A20.9165 20.9165 169.99 0 1 0 538.61 A31.6614
									 31.6614 -8.14 0 0 36.11 512.85 A61.0107 61.0107 174.44 0 1 30.86 509.86 A25.0396 25.0396 0 0
									 1 18.96 528.15 A33.753 33.753 -180 0 0 23.89 504.97 A45.311 45.311 166.28 0 1 17.98 502.28 Z"
								class="st3"/>
					</g>
					<g id="shape99-179" v:mID="99" v:groupContext="shape" transform="translate(-414.592,231.164) rotate(-57.4)">
						<title>Sheet.99</title>
						<path d="M21.18 513.1 A49.943 49.943 90.05 0 1 0 539 A42.9554 42.9554 -180 0 0 29.05 519.29 A152.311 152.311
									 0 0 1 21.18 513.1 Z" class="st3"/>
					</g>
					<g id="shape100-181" v:mID="100" v:groupContext="shape" transform="translate(-393.78,224.414) rotate(-57.4)">
						<title>Sheet.100</title>
						<path d="M19.22 509.01 A53.1654 53.1654 179.86 0 1 0 539 A48.544 48.544 -169.03 0 0 29.87 512.88 A172.384
									 172.384 165.02 0 1 19.22 509.01 Z" class="st3"/>
					</g>
					<g id="shape101-183" v:mID="101" v:groupContext="shape" transform="translate(-367.061,215.274) rotate(-57.4)">
						<title>Sheet.101</title>
						<path d="M16.17 497.98 A65.8115 65.8115 77.36 0 1 0 539 A63.7142 63.7142 -103.59 0 0 27.18 494.58 A187.19
									 187.19 76.6 0 1 21.76 497.59 A171.746 171.746 0 0 1 16.17 497.98 Z" class="st3"/>
					</g>
				</g>
				<g id="shape102-185" v:mID="102" v:groupContext="shape" transform="translate(92.9259,-298.386)">
					<title>Sheet.102</title>
					<path d="M77.62 519.01 A116.949 116.949 81.26 0 1 0 517.04 A75.9709 75.9709 -85 0 0 77.62 535.04 L77.62 519.01
								 Z" class="st3"/>
				</g>
				<g id="shape103-187" v:mID="103" v:groupContext="shape" transform="translate(89.1759,-269.538)">
					<title>Sheet.103</title>
					<path d="M79.13 519.41 A119.213 119.213 85.39 0 1 0 517.3 A86.0591 86.0591 -87.06 0 0 77.44 536.57 A16.2973 16.2973
								 0 0 1 79.13 519.41 Z" class="st3"/>
				</g>
				<g id="shape104-189" v:mID="104" v:groupContext="shape" transform="translate(-227.062,-14.2863) rotate(-45)">
					<title>Sheet.104</title>
					<path d="M65.43 517.56 A98.8276 98.8276 87.69 0 1 0 512.59 A64.2407 64.2407 -80.08 0 0 62.35 538.15 L65.43 517.56
								 Z" class="st3"/>
				</g>
				<g id="shape105-191" v:mID="105" v:groupContext="shape" transform="translate(104.738,-203.906)">
					<title>Sheet.105</title>
					<path d="M0.56 531.12 A50.171 50.171 -180 0 0 7.33 521.29 A76.2657 76.2657 -87.2 0 0 -0 488.65 A41.9688 41.9688
								 88.68 0 1 11.3 511.25 A50.171 50.171 -180 0 0 8.44 476.84 A56.1107 56.1107 0 0 1 12.94 539 A34.2298
								 34.2298 3.67 0 1 0.56 531.12 Z" class="st3"/>
				</g>
				<g id="shape106-193" v:mID="106" v:groupContext="shape" transform="translate(-11.7428,-201.759) rotate(-15)">
					<title>Sheet.106</title>
					<path d="M50 506.87 A29.7483 20.3103 -99.44 0 0 53.34 526.99 A123.009 83.9828 72.28 0 1 0 536.55 A254.788 173.953
								 -102.75 0 0 50 506.87 Z" class="st3"/>
				</g>
			</g>
		</g>
	</g>
</svg>
